<svg width="1680" height="264" viewBox="0 0 1680 264" fill="none" xmlns="http://www.w3.org/2000/svg">
<path opacity="0.2" d="M5.99609 33.375L3.32422 47.3672H13.9766V50.1445H2.72656L-0.296875 66H-3.46094L-0.367188 50.1445H-13.0234L-16.0469 66H-19.1406L-16.1172 50.1445H-26.0664V47.3672H-15.5547L-12.8828 33.375H-23.3242V30.5625H-12.3906L-9.36719 14.6016H-6.16797L-9.29688 30.5625H3.53516L6.62891 14.6016H9.65234L6.55859 30.5625H16.5781V33.375H5.99609ZM-12.5312 47.3672H0.230469L2.97266 33.375H-9.78906L-12.5312 47.3672ZM51.5938 66V41.2148C51.5938 37.3711 50.7852 34.582 49.168 32.8477C47.5508 31.0898 45.043 30.2109 41.6445 30.2109C37.0742 30.2109 33.7227 31.3711 31.5898 33.6914C29.4805 35.9883 28.4258 39.7266 28.4258 44.9062V66H24.9453V27.7852H27.8984L28.5664 33.0234H28.7773C31.2617 29.0391 35.6797 27.0469 42.0312 27.0469C50.7031 27.0469 55.0391 31.6992 55.0391 41.0039V66H51.5938ZM70.8945 66H67.4141V27.7852H70.8945V66ZM66.9219 17.168C66.9219 14.918 67.6602 13.793 69.1367 13.793C69.8633 13.793 70.4258 14.0859 70.8242 14.6719C71.2461 15.2578 71.457 16.0898 71.457 17.168C71.457 18.2227 71.2461 19.0547 70.8242 19.6641C70.4258 20.2734 69.8633 20.5781 69.1367 20.5781C67.6602 20.5781 66.9219 19.4414 66.9219 17.168ZM113.539 27.7852V30.2109L105.629 30.7031C107.738 33.3281 108.793 36.2109 108.793 39.3516C108.793 43.0312 107.562 46.0195 105.102 48.3164C102.664 50.5898 99.3828 51.7266 95.2578 51.7266C93.5234 51.7266 92.3047 51.6562 91.6016 51.5156C90.2188 52.2422 89.1641 53.0977 88.4375 54.082C87.7109 55.0664 87.3477 56.1094 87.3477 57.2109C87.3477 58.4297 87.8047 59.3203 88.7188 59.8828C89.6562 60.4453 91.2148 60.7266 93.3945 60.7266H100.074C104.223 60.7266 107.398 61.5703 109.602 63.2578C111.805 64.9219 112.906 67.3945 112.906 70.6758C112.906 74.707 111.266 77.8125 107.984 79.9922C104.727 82.1953 100.074 83.2969 94.0273 83.2969C89.2227 83.2969 85.4961 82.3711 82.8477 80.5195C80.2227 78.668 78.9102 76.0898 78.9102 72.7852C78.9102 70.1602 79.7188 67.9805 81.3359 66.2461C82.9766 64.5117 85.1914 63.3281 87.9805 62.6953C86.832 62.2031 85.9062 61.5117 85.2031 60.6211C84.5234 59.707 84.1836 58.6641 84.1836 57.4922C84.1836 54.9375 85.8125 52.6875 89.0703 50.7422C86.8438 49.8281 85.1094 48.3984 83.8672 46.4531C82.625 44.4844 82.0039 42.2344 82.0039 39.7031C82.0039 35.8828 83.2109 32.8242 85.625 30.5273C88.0625 28.207 91.3438 27.0469 95.4688 27.0469C97.9766 27.0469 99.9219 27.293 101.305 27.7852H113.539ZM82.6016 72.4688C82.6016 77.7188 86.5039 80.3438 94.3086 80.3438C104.34 80.3438 109.355 77.1445 109.355 70.7461C109.355 68.4492 108.57 66.7852 107 65.7539C105.43 64.7227 102.887 64.207 99.3711 64.207H93.1133C86.1055 64.207 82.6016 66.9609 82.6016 72.4688ZM85.5195 39.7031C85.5195 42.6562 86.4102 44.9531 88.1914 46.5938C89.9961 48.2109 92.3984 49.0195 95.3984 49.0195C98.5859 49.0195 101.023 48.2109 102.711 46.5938C104.422 44.9766 105.277 42.6328 105.277 39.5625C105.277 36.3047 104.398 33.8672 102.641 32.25C100.906 30.6094 98.4688 29.7891 95.3281 29.7891C92.2812 29.7891 89.8789 30.668 88.1211 32.4258C86.3867 34.1602 85.5195 36.5859 85.5195 39.7031ZM148.062 66V41.2148C148.062 37.3711 147.254 34.582 145.637 32.8477C144.02 31.0898 141.512 30.2109 138.113 30.2109C133.543 30.2109 130.191 31.3711 128.059 33.6914C125.949 35.9883 124.895 39.7266 124.895 44.9062V66H121.414V11.2969H124.895V28.6992L124.719 33.5859H124.965C126.395 31.2891 128.199 29.625 130.379 28.5938C132.559 27.5625 135.266 27.0469 138.5 27.0469C147.172 27.0469 151.508 31.6992 151.508 41.0039V66H148.062ZM173.973 63.6094C176.176 63.6094 178.098 63.4219 179.738 63.0469V65.8594C178.051 66.4219 176.105 66.7031 173.902 66.7031C170.527 66.7031 168.031 65.8008 166.414 63.9961C164.82 62.1914 164.023 59.3555 164.023 55.4883V30.8086H158.363V28.7695L164.023 27.1875L165.781 18.5391H167.574V27.7852H178.789V30.8086H167.574V54.9961C167.574 57.9258 168.09 60.0938 169.121 61.5C170.152 62.9062 171.77 63.6094 173.973 63.6094ZM191.48 66H188V11.2969H191.48V66ZM207.793 66H204.312V27.7852H207.793V66ZM203.82 17.168C203.82 14.918 204.559 13.793 206.035 13.793C206.762 13.793 207.324 14.0859 207.723 14.6719C208.145 15.2578 208.355 16.0898 208.355 17.168C208.355 18.2227 208.145 19.0547 207.723 19.6641C207.324 20.2734 206.762 20.5781 206.035 20.5781C204.559 20.5781 203.82 19.4414 203.82 17.168ZM234.828 30.8086H225.828V66H222.348V30.8086H215.246V28.7695L222.348 27.4688V24.5156C222.348 19.8281 223.203 16.3945 224.914 14.2148C226.648 12.0117 229.473 10.9102 233.387 10.9102C235.496 10.9102 237.605 11.2266 239.715 11.8594L238.906 14.8828C237.031 14.2969 235.168 14.0039 233.316 14.0039C230.598 14.0039 228.664 14.8125 227.516 16.4297C226.391 18.0234 225.828 20.625 225.828 24.2344V27.7852H234.828V30.8086ZM257.645 66.7031C252.09 66.7031 247.754 64.9922 244.637 61.5703C241.543 58.1484 239.996 53.3555 239.996 47.1914C239.996 41.0977 241.496 36.2227 244.496 32.5664C247.496 28.8867 251.539 27.0469 256.625 27.0469C261.125 27.0469 264.676 28.6172 267.277 31.7578C269.879 34.8984 271.18 39.1641 271.18 44.5547V47.3672H243.652C243.699 52.6172 244.918 56.625 247.309 59.3906C249.723 62.1562 253.168 63.5391 257.645 63.5391C259.824 63.5391 261.734 63.3867 263.375 63.082C265.039 62.7773 267.137 62.1211 269.668 61.1133V64.2773C267.512 65.2148 265.52 65.8477 263.691 66.1758C261.863 66.5273 259.848 66.7031 257.645 66.7031ZM256.625 30.1406C252.945 30.1406 249.992 31.3594 247.766 33.7969C245.539 36.2109 244.238 39.7031 243.863 44.2734H267.488C267.488 39.8438 266.527 36.3867 264.605 33.9023C262.684 31.3945 260.023 30.1406 256.625 30.1406ZM365.434 33.375L362.762 47.3672H373.414V50.1445H362.164L359.141 66H355.977L359.07 50.1445H346.414L343.391 66H340.297L343.32 50.1445H333.371V47.3672H343.883L346.555 33.375H336.113V30.5625H347.047L350.07 14.6016H353.27L350.141 30.5625H362.973L366.066 14.6016H369.09L365.996 30.5625H376.016V33.375H365.434ZM346.906 47.3672H359.668L362.41 33.375H349.648L346.906 47.3672ZM387.793 49.2305L407.305 27.7852H411.523L396.477 44.0977L412.824 66H408.641L394.121 46.6992L387.863 52.3945V66H384.383V11.2969H387.863V38.7188L387.617 49.2305H387.793ZM442.461 66L441.582 59.9531H441.301C439.379 62.4141 437.398 64.1602 435.359 65.1914C433.344 66.1992 430.953 66.7031 428.188 66.7031C424.438 66.7031 421.52 65.7422 419.434 63.8203C417.348 61.8984 416.305 59.2383 416.305 55.8398C416.305 52.1133 417.852 49.2188 420.945 47.1562C424.062 45.0938 428.562 44.0039 434.445 43.8867L441.723 43.6758V41.1445C441.723 37.5117 440.984 34.7695 439.508 32.918C438.031 31.0664 435.652 30.1406 432.371 30.1406C428.832 30.1406 425.164 31.125 421.367 33.0938L420.066 30.0703C424.262 28.1016 428.41 27.1172 432.512 27.1172C436.707 27.1172 439.836 28.207 441.898 30.3867C443.984 32.5664 445.027 35.9648 445.027 40.582V66H442.461ZM428.398 63.5391C432.477 63.5391 435.688 62.3789 438.031 60.0586C440.398 57.7148 441.582 54.4688 441.582 50.3203V46.5586L434.902 46.8398C429.535 47.0977 425.703 47.9414 423.406 49.3711C421.133 50.7773 419.996 52.9805 419.996 55.9805C419.996 58.3711 420.723 60.2344 422.176 61.5703C423.652 62.8828 425.727 63.5391 428.398 63.5391ZM472.484 27.0469C474.102 27.0469 475.836 27.2109 477.688 27.5391L477.02 30.8789C475.426 30.4805 473.773 30.2812 472.062 30.2812C468.805 30.2812 466.133 31.6641 464.047 34.4297C461.961 37.1953 460.918 40.6875 460.918 44.9062V66H457.438V27.7852H460.391L460.742 34.6758H460.988C462.559 31.8633 464.234 29.8945 466.016 28.7695C467.797 27.6211 469.953 27.0469 472.484 27.0469ZM508.695 66L507.816 59.9531H507.535C505.613 62.4141 503.633 64.1602 501.594 65.1914C499.578 66.1992 497.188 66.7031 494.422 66.7031C490.672 66.7031 487.754 65.7422 485.668 63.8203C483.582 61.8984 482.539 59.2383 482.539 55.8398C482.539 52.1133 484.086 49.2188 487.18 47.1562C490.297 45.0938 494.797 44.0039 500.68 43.8867L507.957 43.6758V41.1445C507.957 37.5117 507.219 34.7695 505.742 32.918C504.266 31.0664 501.887 30.1406 498.605 30.1406C495.066 30.1406 491.398 31.125 487.602 33.0938L486.301 30.0703C490.496 28.1016 494.645 27.1172 498.746 27.1172C502.941 27.1172 506.07 28.207 508.133 30.3867C510.219 32.5664 511.262 35.9648 511.262 40.582V66H508.695ZM494.633 63.5391C498.711 63.5391 501.922 62.3789 504.266 60.0586C506.633 57.7148 507.816 54.4688 507.816 50.3203V46.5586L501.137 46.8398C495.77 47.0977 491.938 47.9414 489.641 49.3711C487.367 50.7773 486.23 52.9805 486.23 55.9805C486.23 58.3711 486.957 60.2344 488.41 61.5703C489.887 62.8828 491.961 63.5391 494.633 63.5391ZM555.277 46.8398C555.277 53.0742 553.766 57.9492 550.742 61.4648C547.719 64.957 543.547 66.7031 538.227 66.7031C534.875 66.7031 531.922 65.8945 529.367 64.2773C526.812 62.6602 524.855 60.3398 523.496 57.3164C522.137 54.293 521.457 50.8008 521.457 46.8398C521.457 40.6055 522.969 35.7539 525.992 32.2852C529.016 28.793 533.164 27.0469 538.438 27.0469C543.688 27.0469 547.801 28.8164 550.777 32.3555C553.777 35.8711 555.277 40.6992 555.277 46.8398ZM525.113 46.8398C525.113 52.0898 526.262 56.1914 528.559 59.1445C530.879 62.0742 534.148 63.5391 538.367 63.5391C542.586 63.5391 545.844 62.0742 548.141 59.1445C550.461 56.1914 551.621 52.0898 551.621 46.8398C551.621 41.5664 550.449 37.4766 548.105 34.5703C545.785 31.6641 542.516 30.2109 538.297 30.2109C534.078 30.2109 530.82 31.6641 528.523 34.5703C526.25 37.4531 525.113 41.543 525.113 46.8398ZM569.27 49.2305L588.781 27.7852H593L577.953 44.0977L594.301 66H590.117L575.598 46.6992L569.34 52.3945V66H565.859V11.2969H569.34V38.7188L569.094 49.2305H569.27ZM616.168 66.7031C610.613 66.7031 606.277 64.9922 603.16 61.5703C600.066 58.1484 598.52 53.3555 598.52 47.1914C598.52 41.0977 600.02 36.2227 603.02 32.5664C606.02 28.8867 610.062 27.0469 615.148 27.0469C619.648 27.0469 623.199 28.6172 625.801 31.7578C628.402 34.8984 629.703 39.1641 629.703 44.5547V47.3672H602.176C602.223 52.6172 603.441 56.625 605.832 59.3906C608.246 62.1562 611.691 63.5391 616.168 63.5391C618.348 63.5391 620.258 63.3867 621.898 63.082C623.562 62.7773 625.66 62.1211 628.191 61.1133V64.2773C626.035 65.2148 624.043 65.8477 622.215 66.1758C620.387 66.5273 618.371 66.7031 616.168 66.7031ZM615.148 30.1406C611.469 30.1406 608.516 31.3594 606.289 33.7969C604.062 36.2109 602.762 39.7031 602.387 44.2734H626.012C626.012 39.8438 625.051 36.3867 623.129 33.9023C621.207 31.3945 618.547 30.1406 615.148 30.1406ZM723.957 33.375L721.285 47.3672H731.938V50.1445H720.688L717.664 66H714.5L717.594 50.1445H704.938L701.914 66H698.82L701.844 50.1445H691.895V47.3672H702.406L705.078 33.375H694.637V30.5625H705.57L708.594 14.6016H711.793L708.664 30.5625H721.496L724.59 14.6016H727.613L724.52 30.5625H734.539V33.375H723.957ZM705.43 47.3672H718.191L720.934 33.375H708.172L705.43 47.3672ZM758.164 66.7031C752.703 66.7031 748.426 64.9805 745.332 61.5352C742.238 58.0898 740.691 53.2852 740.691 47.1211C740.691 40.793 742.297 35.8711 745.508 32.3555C748.719 28.8164 753.113 27.0469 758.691 27.0469C761.996 27.0469 765.16 27.6211 768.184 28.7695L767.234 31.8633C763.93 30.7617 761.059 30.2109 758.621 30.2109C753.934 30.2109 750.383 31.6641 747.969 34.5703C745.555 37.4531 744.348 41.6133 744.348 47.0508C744.348 52.207 745.555 56.25 747.969 59.1797C750.383 62.0859 753.758 63.5391 758.094 63.5391C761.562 63.5391 764.785 62.918 767.762 61.6758V64.9102C765.324 66.1055 762.125 66.7031 758.164 66.7031ZM780.629 66H777.148V27.7852H780.629V66ZM776.656 17.168C776.656 14.918 777.395 13.793 778.871 13.793C779.598 13.793 780.16 14.0859 780.559 14.6719C780.98 15.2578 781.191 16.0898 781.191 17.168C781.191 18.2227 780.98 19.0547 780.559 19.6641C780.16 20.2734 779.598 20.5781 778.871 20.5781C777.395 20.5781 776.656 19.4414 776.656 17.168ZM803.551 63.6094C805.754 63.6094 807.676 63.4219 809.316 63.0469V65.8594C807.629 66.4219 805.684 66.7031 803.48 66.7031C800.105 66.7031 797.609 65.8008 795.992 63.9961C794.398 62.1914 793.602 59.3555 793.602 55.4883V30.8086H787.941V28.7695L793.602 27.1875L795.359 18.5391H797.152V27.7852H808.367V30.8086H797.152V54.9961C797.152 57.9258 797.668 60.0938 798.699 61.5C799.73 62.9062 801.348 63.6094 803.551 63.6094ZM811.18 27.7852H814.766L822.852 49.2305C825.312 55.8164 826.871 60.2578 827.527 62.5547H827.738C828.723 59.5312 830.328 55.0195 832.555 49.0195L840.641 27.7852H844.227L827.105 72.1875C825.723 75.7969 824.562 78.2344 823.625 79.5C822.688 80.7656 821.586 81.7148 820.32 82.3477C819.078 82.9805 817.566 83.2969 815.785 83.2969C814.449 83.2969 812.961 83.0508 811.32 82.5586V79.5352C812.68 79.9102 814.145 80.0977 815.715 80.0977C816.91 80.0977 817.965 79.8164 818.879 79.2539C819.793 78.6914 820.613 77.8125 821.34 76.6172C822.09 75.4453 822.945 73.5703 823.906 70.9922C824.891 68.4375 825.523 66.7734 825.805 66L811.18 27.7852ZM860.715 63.6094C862.918 63.6094 864.84 63.4219 866.48 63.0469V65.8594C864.793 66.4219 862.848 66.7031 860.645 66.7031C857.27 66.7031 854.773 65.8008 853.156 63.9961C851.562 62.1914 850.766 59.3555 850.766 55.4883V30.8086H845.105V28.7695L850.766 27.1875L852.523 18.5391H854.316V27.7852H865.531V30.8086H854.316V54.9961C854.316 57.9258 854.832 60.0938 855.863 61.5C856.895 62.9062 858.512 63.6094 860.715 63.6094ZM906.348 46.8398C906.348 53.0742 904.836 57.9492 901.812 61.4648C898.789 64.957 894.617 66.7031 889.297 66.7031C885.945 66.7031 882.992 65.8945 880.438 64.2773C877.883 62.6602 875.926 60.3398 874.566 57.3164C873.207 54.293 872.527 50.8008 872.527 46.8398C872.527 40.6055 874.039 35.7539 877.062 32.2852C880.086 28.793 884.234 27.0469 889.508 27.0469C894.758 27.0469 898.871 28.8164 901.848 32.3555C904.848 35.8711 906.348 40.6992 906.348 46.8398ZM876.184 46.8398C876.184 52.0898 877.332 56.1914 879.629 59.1445C881.949 62.0742 885.219 63.5391 889.438 63.5391C893.656 63.5391 896.914 62.0742 899.211 59.1445C901.531 56.1914 902.691 52.0898 902.691 46.8398C902.691 41.5664 901.52 37.4766 899.176 34.5703C896.855 31.6641 893.586 30.2109 889.367 30.2109C885.148 30.2109 881.891 31.6641 879.594 34.5703C877.32 37.4531 876.184 41.543 876.184 46.8398ZM919.953 27.7852V52.5352C919.953 56.3789 920.762 59.1797 922.379 60.9375C923.996 62.6719 926.504 63.5391 929.902 63.5391C934.449 63.5391 937.789 62.3906 939.922 60.0938C942.078 57.7969 943.156 54.0586 943.156 48.8789V27.7852H946.602V66H943.648L943.016 60.7266H942.805C940.32 64.7109 935.902 66.7031 929.551 66.7031C920.855 66.7031 916.508 62.0508 916.508 52.7461V27.7852H919.953ZM974.445 27.0469C976.062 27.0469 977.797 27.2109 979.648 27.5391L978.98 30.8789C977.387 30.4805 975.734 30.2812 974.023 30.2812C970.766 30.2812 968.094 31.6641 966.008 34.4297C963.922 37.1953 962.879 40.6875 962.879 44.9062V66H959.398V27.7852H962.352L962.703 34.6758H962.949C964.52 31.8633 966.195 29.8945 967.977 28.7695C969.758 27.6211 971.914 27.0469 974.445 27.0469ZM1071.16 33.375L1068.49 47.3672H1079.14V50.1445H1067.89L1064.87 66H1061.7L1064.8 50.1445H1052.14L1049.12 66H1046.02L1049.05 50.1445H1039.1V47.3672H1049.61L1052.28 33.375H1041.84V30.5625H1052.77L1055.8 14.6016H1059L1055.87 30.5625H1068.7L1071.79 14.6016H1074.82L1071.72 30.5625H1081.74V33.375H1071.16ZM1052.63 47.3672H1065.39L1068.14 33.375H1055.38L1052.63 47.3672ZM1113.8 56.0508C1113.8 59.4727 1112.5 62.1094 1109.9 63.9609C1107.3 65.7891 1103.61 66.7031 1098.83 66.7031C1093.72 66.7031 1089.66 65.918 1086.66 64.3477V60.5859C1090.51 62.5078 1094.56 63.4688 1098.83 63.4688C1102.6 63.4688 1105.46 62.8477 1107.41 61.6055C1109.38 60.3398 1110.36 58.6641 1110.36 56.5781C1110.36 54.6562 1109.57 53.0391 1108 51.7266C1106.46 50.4141 1103.9 49.125 1100.34 47.8594C1096.52 46.4766 1093.84 45.293 1092.29 44.3086C1090.74 43.3008 1089.57 42.1758 1088.77 40.9336C1088 39.668 1087.61 38.1328 1087.61 36.3281C1087.61 33.4688 1088.81 31.207 1091.2 29.543C1093.61 27.8789 1096.98 27.0469 1101.29 27.0469C1105.41 27.0469 1109.33 27.8203 1113.03 29.3672L1111.73 32.5312C1107.98 30.9844 1104.5 30.2109 1101.29 30.2109C1098.17 30.2109 1095.7 30.7266 1093.87 31.7578C1092.04 32.7891 1091.13 34.2188 1091.13 36.0469C1091.13 38.0391 1091.83 39.6328 1093.24 40.8281C1094.67 42.0234 1097.45 43.3594 1101.57 44.8359C1105.02 46.0781 1107.52 47.2031 1109.09 48.2109C1110.66 49.1953 1111.84 50.3203 1112.61 51.5859C1113.41 52.8516 1113.8 54.3398 1113.8 56.0508ZM1127.06 49.2305L1146.57 27.7852H1150.79L1135.74 44.0977L1152.09 66H1147.91L1133.39 46.6992L1127.13 52.3945V66H1123.65V11.2969H1127.13V38.7188L1126.88 49.2305H1127.06ZM1152.12 27.7852H1155.71L1163.8 49.2305C1166.26 55.8164 1167.82 60.2578 1168.47 62.5547H1168.68C1169.67 59.5312 1171.27 55.0195 1173.5 49.0195L1181.59 27.7852H1185.17L1168.05 72.1875C1166.67 75.7969 1165.51 78.2344 1164.57 79.5C1163.63 80.7656 1162.53 81.7148 1161.27 82.3477C1160.02 82.9805 1158.51 83.2969 1156.73 83.2969C1155.39 83.2969 1153.91 83.0508 1152.27 82.5586V79.5352C1153.62 79.9102 1155.09 80.0977 1156.66 80.0977C1157.86 80.0977 1158.91 79.8164 1159.82 79.2539C1160.74 78.6914 1161.56 77.8125 1162.29 76.6172C1163.04 75.4453 1163.89 73.5703 1164.85 70.9922C1165.84 68.4375 1166.47 66.7734 1166.75 66L1152.12 27.7852ZM1205.56 27.0469C1208.33 27.0469 1210.72 27.5508 1212.73 28.5586C1214.75 29.5664 1216.55 31.2891 1218.15 33.7266H1218.36C1218.22 30.7734 1218.15 27.8789 1218.15 25.043V11.2969H1221.59V66H1219.31L1218.43 60.1641H1218.15C1215.24 64.5234 1211.07 66.7031 1205.63 66.7031C1200.36 66.7031 1196.33 65.0625 1193.54 61.7812C1190.75 58.5 1189.36 53.7188 1189.36 47.4375C1189.36 40.8281 1190.74 35.7773 1193.5 32.2852C1196.27 28.793 1200.29 27.0469 1205.56 27.0469ZM1205.56 30.2109C1201.39 30.2109 1198.25 31.6758 1196.14 34.6055C1194.05 37.5352 1193.01 41.7891 1193.01 47.3672C1193.01 58.1953 1197.22 63.6094 1205.63 63.6094C1209.95 63.6094 1213.11 62.3555 1215.12 59.8477C1217.14 57.3398 1218.15 53.2031 1218.15 47.4375V46.8398C1218.15 40.9336 1217.15 36.6914 1215.16 34.1133C1213.19 31.5117 1209.99 30.2109 1205.56 30.2109ZM1237.94 66H1234.46V27.7852H1237.94V66ZM1233.97 17.168C1233.97 14.918 1234.71 13.793 1236.18 13.793C1236.91 13.793 1237.47 14.0859 1237.87 14.6719C1238.29 15.2578 1238.5 16.0898 1238.5 17.168C1238.5 18.2227 1238.29 19.0547 1237.87 19.6641C1237.47 20.2734 1236.91 20.5781 1236.18 20.5781C1234.71 20.5781 1233.97 19.4414 1233.97 17.168ZM1259.14 66L1244.38 27.7852H1247.96L1257.84 53.7656C1259.15 57.0938 1260.14 60 1260.79 62.4844H1261C1261.96 59.2969 1262.95 56.3672 1263.96 53.6953L1273.84 27.7852H1277.42L1262.66 66H1259.14ZM1287.3 66H1283.82V27.7852H1287.3V66ZM1283.33 17.168C1283.33 14.918 1284.07 13.793 1285.54 13.793C1286.27 13.793 1286.83 14.0859 1287.23 14.6719C1287.65 15.2578 1287.86 16.0898 1287.86 17.168C1287.86 18.2227 1287.65 19.0547 1287.23 19.6641C1286.83 20.2734 1286.27 20.5781 1285.54 20.5781C1284.07 20.5781 1283.33 19.4414 1283.33 17.168ZM1326.78 66V41.2148C1326.78 37.3711 1325.97 34.582 1324.36 32.8477C1322.74 31.0898 1320.23 30.2109 1316.83 30.2109C1312.26 30.2109 1308.91 31.3711 1306.78 33.6914C1304.67 35.9883 1303.61 39.7266 1303.61 44.9062V66H1300.13V27.7852H1303.09L1303.75 33.0234H1303.96C1306.45 29.0391 1310.87 27.0469 1317.22 27.0469C1325.89 27.0469 1330.23 31.6992 1330.23 41.0039V66H1326.78ZM1372.41 27.7852V30.2109L1364.5 30.7031C1366.61 33.3281 1367.67 36.2109 1367.67 39.3516C1367.67 43.0312 1366.44 46.0195 1363.98 48.3164C1361.54 50.5898 1358.26 51.7266 1354.13 51.7266C1352.4 51.7266 1351.18 51.6562 1350.48 51.5156C1349.09 52.2422 1348.04 53.0977 1347.31 54.082C1346.59 55.0664 1346.22 56.1094 1346.22 57.2109C1346.22 58.4297 1346.68 59.3203 1347.59 59.8828C1348.53 60.4453 1350.09 60.7266 1352.27 60.7266H1358.95C1363.1 60.7266 1366.27 61.5703 1368.48 63.2578C1370.68 64.9219 1371.78 67.3945 1371.78 70.6758C1371.78 74.707 1370.14 77.8125 1366.86 79.9922C1363.6 82.1953 1358.95 83.2969 1352.9 83.2969C1348.1 83.2969 1344.37 82.3711 1341.72 80.5195C1339.1 78.668 1337.79 76.0898 1337.79 72.7852C1337.79 70.1602 1338.59 67.9805 1340.21 66.2461C1341.85 64.5117 1344.07 63.3281 1346.86 62.6953C1345.71 62.2031 1344.78 61.5117 1344.08 60.6211C1343.4 59.707 1343.06 58.6641 1343.06 57.4922C1343.06 54.9375 1344.69 52.6875 1347.95 50.7422C1345.72 49.8281 1343.98 48.3984 1342.74 46.4531C1341.5 44.4844 1340.88 42.2344 1340.88 39.7031C1340.88 35.8828 1342.09 32.8242 1344.5 30.5273C1346.94 28.207 1350.22 27.0469 1354.34 27.0469C1356.85 27.0469 1358.8 27.293 1360.18 27.7852H1372.41ZM1341.48 72.4688C1341.48 77.7188 1345.38 80.3438 1353.18 80.3438C1363.21 80.3438 1368.23 77.1445 1368.23 70.7461C1368.23 68.4492 1367.45 66.7852 1365.88 65.7539C1364.3 64.7227 1361.76 64.207 1358.25 64.207H1351.99C1344.98 64.207 1341.48 66.9609 1341.48 72.4688ZM1344.39 39.7031C1344.39 42.6562 1345.29 44.9531 1347.07 46.5938C1348.87 48.2109 1351.27 49.0195 1354.27 49.0195C1357.46 49.0195 1359.9 48.2109 1361.59 46.5938C1363.3 44.9766 1364.15 42.6328 1364.15 39.5625C1364.15 36.3047 1363.27 33.8672 1361.52 32.25C1359.78 30.6094 1357.34 29.7891 1354.2 29.7891C1351.16 29.7891 1348.75 30.668 1347 32.4258C1345.26 34.1602 1344.39 36.5859 1344.39 39.7031ZM1464 33.375L1461.32 47.3672H1471.98V50.1445H1460.73L1457.7 66H1454.54L1457.63 50.1445H1444.98L1441.95 66H1438.86L1441.88 50.1445H1431.93V47.3672H1442.45L1445.12 33.375H1434.68V30.5625H1445.61L1448.63 14.6016H1451.83L1448.7 30.5625H1461.54L1464.63 14.6016H1467.65L1464.56 30.5625H1474.58V33.375H1464ZM1445.47 47.3672H1458.23L1460.97 33.375H1448.21L1445.47 47.3672ZM1499.29 66.7031C1493.41 66.7031 1489.12 64.5 1486.43 60.0938H1486.18L1486.29 63.0469C1486.38 64.7812 1486.43 66.6797 1486.43 68.7422V83.2969H1482.95V27.7852H1485.9L1486.57 33.2344H1486.78C1489.4 29.1094 1493.6 27.0469 1499.36 27.0469C1504.52 27.0469 1508.45 28.7461 1511.14 32.1445C1513.86 35.5195 1515.22 40.4414 1515.22 46.9102C1515.22 53.1914 1513.79 58.0664 1510.93 61.5352C1508.09 64.9805 1504.21 66.7031 1499.29 66.7031ZM1499.22 63.6094C1503.14 63.6094 1506.16 62.1562 1508.29 59.25C1510.45 56.3438 1511.53 52.2773 1511.53 47.0508C1511.53 35.8242 1507.47 30.2109 1499.36 30.2109C1494.91 30.2109 1491.64 31.4414 1489.55 33.9023C1487.47 36.3398 1486.43 40.3242 1486.43 45.8555V46.9805C1486.43 52.957 1487.42 57.2227 1489.41 59.7773C1491.43 62.332 1494.7 63.6094 1499.22 63.6094ZM1529.32 66H1525.84V11.2969H1529.32V66ZM1565.35 66L1564.47 59.9531H1564.19C1562.27 62.4141 1560.29 64.1602 1558.25 65.1914C1556.23 66.1992 1553.84 66.7031 1551.08 66.7031C1547.33 66.7031 1544.41 65.7422 1542.32 63.8203C1540.24 61.8984 1539.2 59.2383 1539.2 55.8398C1539.2 52.1133 1540.74 49.2188 1543.84 47.1562C1546.95 45.0938 1551.45 44.0039 1557.34 43.8867L1564.61 43.6758V41.1445C1564.61 37.5117 1563.88 34.7695 1562.4 32.918C1560.92 31.0664 1558.54 30.1406 1555.26 30.1406C1551.72 30.1406 1548.05 31.125 1544.26 33.0938L1542.96 30.0703C1547.15 28.1016 1551.3 27.1172 1555.4 27.1172C1559.6 27.1172 1562.73 28.207 1564.79 30.3867C1566.88 32.5664 1567.92 35.9648 1567.92 40.582V66H1565.35ZM1551.29 63.5391C1555.37 63.5391 1558.58 62.3789 1560.92 60.0586C1563.29 57.7148 1564.47 54.4688 1564.47 50.3203V46.5586L1557.79 46.8398C1552.43 47.0977 1548.59 47.9414 1546.3 49.3711C1544.02 50.7773 1542.89 52.9805 1542.89 55.9805C1542.89 58.3711 1543.61 60.2344 1545.07 61.5703C1546.54 62.8828 1548.62 63.5391 1551.29 63.5391ZM1573.93 27.7852H1577.52L1585.6 49.2305C1588.06 55.8164 1589.62 60.2578 1590.28 62.5547H1590.49C1591.47 59.5312 1593.08 55.0195 1595.3 49.0195L1603.39 27.7852H1606.98L1589.86 72.1875C1588.47 75.7969 1587.31 78.2344 1586.38 79.5C1585.44 80.7656 1584.34 81.7148 1583.07 82.3477C1581.83 82.9805 1580.32 83.2969 1578.54 83.2969C1577.2 83.2969 1575.71 83.0508 1574.07 82.5586V79.5352C1575.43 79.9102 1576.89 80.0977 1578.46 80.0977C1579.66 80.0977 1580.71 79.8164 1581.63 79.2539C1582.54 78.6914 1583.36 77.8125 1584.09 76.6172C1584.84 75.4453 1585.7 73.5703 1586.66 70.9922C1587.64 68.4375 1588.27 66.7734 1588.55 66L1573.93 27.7852ZM1616.86 66H1613.38V27.7852H1616.86V66ZM1612.88 17.168C1612.88 14.918 1613.62 13.793 1615.1 13.793C1615.82 13.793 1616.39 14.0859 1616.79 14.6719C1617.21 15.2578 1617.42 16.0898 1617.42 17.168C1617.42 18.2227 1617.21 19.0547 1616.79 19.6641C1616.39 20.2734 1615.82 20.5781 1615.1 20.5781C1613.62 20.5781 1612.88 19.4414 1612.88 17.168ZM1656.34 66V41.2148C1656.34 37.3711 1655.53 34.582 1653.91 32.8477C1652.29 31.0898 1649.79 30.2109 1646.39 30.2109C1641.82 30.2109 1638.46 31.3711 1636.33 33.6914C1634.22 35.9883 1633.17 39.7266 1633.17 44.9062V66H1629.69V27.7852H1632.64L1633.31 33.0234H1633.52C1636 29.0391 1640.42 27.0469 1646.77 27.0469C1655.45 27.0469 1659.78 31.6992 1659.78 41.0039V66H1656.34ZM1701.97 27.7852V30.2109L1694.06 30.7031C1696.17 33.3281 1697.22 36.2109 1697.22 39.3516C1697.22 43.0312 1695.99 46.0195 1693.53 48.3164C1691.09 50.5898 1687.81 51.7266 1683.69 51.7266C1681.95 51.7266 1680.73 51.6562 1680.03 51.5156C1678.65 52.2422 1677.59 53.0977 1676.87 54.082C1676.14 55.0664 1675.78 56.1094 1675.78 57.2109C1675.78 58.4297 1676.23 59.3203 1677.15 59.8828C1678.09 60.4453 1679.64 60.7266 1681.82 60.7266H1688.5C1692.65 60.7266 1695.83 61.5703 1698.03 63.2578C1700.23 64.9219 1701.34 67.3945 1701.34 70.6758C1701.34 74.707 1699.7 77.8125 1696.41 79.9922C1693.16 82.1953 1688.5 83.2969 1682.46 83.2969C1677.65 83.2969 1673.93 82.3711 1671.28 80.5195C1668.65 78.668 1667.34 76.0898 1667.34 72.7852C1667.34 70.1602 1668.15 67.9805 1669.77 66.2461C1671.41 64.5117 1673.62 63.3281 1676.41 62.6953C1675.26 62.2031 1674.34 61.5117 1673.63 60.6211C1672.95 59.707 1672.61 58.6641 1672.61 57.4922C1672.61 54.9375 1674.24 52.6875 1677.5 50.7422C1675.27 49.8281 1673.54 48.3984 1672.3 46.4531C1671.05 44.4844 1670.43 42.2344 1670.43 39.7031C1670.43 35.8828 1671.64 32.8242 1674.05 30.5273C1676.49 28.207 1679.77 27.0469 1683.9 27.0469C1686.41 27.0469 1688.35 27.293 1689.73 27.7852H1701.97ZM1671.03 72.4688C1671.03 77.7188 1674.93 80.3438 1682.74 80.3438C1692.77 80.3438 1697.79 77.1445 1697.79 70.7461C1697.79 68.4492 1697 66.7852 1695.43 65.7539C1693.86 64.7227 1691.32 64.207 1687.8 64.207H1681.54C1674.54 64.207 1671.03 66.9609 1671.03 72.4688ZM1673.95 39.7031C1673.95 42.6562 1674.84 44.9531 1676.62 46.5938C1678.43 48.2109 1680.83 49.0195 1683.83 49.0195C1687.02 49.0195 1689.45 48.2109 1691.14 46.5938C1692.85 44.9766 1693.71 42.6328 1693.71 39.5625C1693.71 36.3047 1692.83 33.8672 1691.07 32.25C1689.34 30.6094 1686.9 29.7891 1683.76 29.7891C1680.71 29.7891 1678.31 30.668 1676.55 32.4258C1674.82 34.1602 1673.95 36.5859 1673.95 39.7031ZM1743.8 66.7031C1738.34 66.7031 1734.07 64.9805 1730.97 61.5352C1727.88 58.0898 1726.33 53.2852 1726.33 47.1211C1726.33 40.793 1727.94 35.8711 1731.15 32.3555C1734.36 28.8164 1738.75 27.0469 1744.33 27.0469C1747.64 27.0469 1750.8 27.6211 1753.82 28.7695L1752.88 31.8633C1749.57 30.7617 1746.7 30.2109 1744.26 30.2109C1739.57 30.2109 1736.02 31.6641 1733.61 34.5703C1731.2 37.4531 1729.99 41.6133 1729.99 47.0508C1729.99 52.207 1731.2 56.25 1733.61 59.1797C1736.02 62.0859 1739.4 63.5391 1743.73 63.5391C1747.2 63.5391 1750.43 62.918 1753.4 61.6758V64.9102C1750.96 66.1055 1747.77 66.7031 1743.8 66.7031ZM1789.44 66V41.2148C1789.44 37.3711 1788.63 34.582 1787.01 32.8477C1785.39 31.0898 1782.89 30.2109 1779.49 30.2109C1774.92 30.2109 1771.57 31.3711 1769.43 33.6914C1767.32 35.9883 1766.27 39.7266 1766.27 44.9062V66H1762.79V11.2969H1766.27V28.6992L1766.09 33.5859H1766.34C1767.77 31.2891 1769.57 29.625 1771.75 28.5938C1773.93 27.5625 1776.64 27.0469 1779.88 27.0469C1788.55 27.0469 1792.88 31.6992 1792.88 41.0039V66H1789.44ZM1820.69 66.7031C1815.14 66.7031 1810.8 64.9922 1807.68 61.5703C1804.59 58.1484 1803.04 53.3555 1803.04 47.1914C1803.04 41.0977 1804.54 36.2227 1807.54 32.5664C1810.54 28.8867 1814.59 27.0469 1819.67 27.0469C1824.17 27.0469 1827.72 28.6172 1830.32 31.7578C1832.93 34.8984 1834.23 39.1641 1834.23 44.5547V47.3672H1806.7C1806.75 52.6172 1807.96 56.625 1810.36 59.3906C1812.77 62.1562 1816.21 63.5391 1820.69 63.5391C1822.87 63.5391 1824.78 63.3867 1826.42 63.082C1828.09 62.7773 1830.18 62.1211 1832.71 61.1133V64.2773C1830.56 65.2148 1828.57 65.8477 1826.74 66.1758C1824.91 66.5273 1822.89 66.7031 1820.69 66.7031ZM1819.67 30.1406C1815.99 30.1406 1813.04 31.3594 1810.81 33.7969C1808.59 36.2109 1807.29 39.7031 1806.91 44.2734H1830.54C1830.54 39.8438 1829.57 36.3867 1827.65 33.9023C1825.73 31.3945 1823.07 30.1406 1819.67 30.1406ZM1868.47 56.0508C1868.47 59.4727 1867.17 62.1094 1864.57 63.9609C1861.96 65.7891 1858.27 66.7031 1853.49 66.7031C1848.38 66.7031 1844.33 65.918 1841.33 64.3477V60.5859C1845.17 62.5078 1849.23 63.4688 1853.49 63.4688C1857.27 63.4688 1860.12 62.8477 1862.07 61.6055C1864.04 60.3398 1865.02 58.6641 1865.02 56.5781C1865.02 54.6562 1864.24 53.0391 1862.67 51.7266C1861.12 50.4141 1858.57 49.125 1855 47.8594C1851.18 46.4766 1848.5 45.293 1846.95 44.3086C1845.41 43.3008 1844.23 42.1758 1843.44 40.9336C1842.66 39.668 1842.28 38.1328 1842.28 36.3281C1842.28 33.4688 1843.47 31.207 1845.86 29.543C1848.28 27.8789 1851.64 27.0469 1855.95 27.0469C1860.08 27.0469 1863.99 27.8203 1867.7 29.3672L1866.39 32.5312C1862.64 30.9844 1859.16 30.2109 1855.95 30.2109C1852.84 30.2109 1850.36 30.7266 1848.54 31.7578C1846.71 32.7891 1845.79 34.2188 1845.79 36.0469C1845.79 38.0391 1846.5 39.6328 1847.9 40.8281C1849.33 42.0234 1852.11 43.3594 1856.23 44.8359C1859.68 46.0781 1862.19 47.2031 1863.76 48.2109C1865.33 49.1953 1866.5 50.3203 1867.27 51.5859C1868.07 52.8516 1868.47 54.3398 1868.47 56.0508ZM1902.01 56.0508C1902.01 59.4727 1900.71 62.1094 1898.11 63.9609C1895.5 65.7891 1891.81 66.7031 1887.03 66.7031C1881.92 66.7031 1877.87 65.918 1874.87 64.3477V60.5859C1878.71 62.5078 1882.77 63.4688 1887.03 63.4688C1890.8 63.4688 1893.66 62.8477 1895.61 61.6055C1897.58 60.3398 1898.56 58.6641 1898.56 56.5781C1898.56 54.6562 1897.78 53.0391 1896.21 51.7266C1894.66 50.4141 1892.11 49.125 1888.54 47.8594C1884.72 46.4766 1882.04 45.293 1880.49 44.3086C1878.95 43.3008 1877.77 42.1758 1876.98 40.9336C1876.2 39.668 1875.82 38.1328 1875.82 36.3281C1875.82 33.4688 1877.01 31.207 1879.4 29.543C1881.82 27.8789 1885.18 27.0469 1889.49 27.0469C1893.62 27.0469 1897.53 27.8203 1901.23 29.3672L1899.93 32.5312C1896.18 30.9844 1892.7 30.2109 1889.49 30.2109C1886.38 30.2109 1883.9 30.7266 1882.07 31.7578C1880.25 32.7891 1879.33 34.2188 1879.33 36.0469C1879.33 38.0391 1880.04 39.6328 1881.44 40.8281C1882.87 42.0234 1885.65 43.3594 1889.77 44.8359C1893.22 46.0781 1895.73 47.2031 1897.3 48.2109C1898.87 49.1953 1900.04 50.3203 1900.81 51.5859C1901.61 52.8516 1902.01 54.3398 1902.01 56.0508Z" fill="black" fill-opacity="0.5"/>
<path opacity="0.2" d="M-515.004 122.375L-517.676 136.367H-507.023V139.145H-518.273L-521.297 155H-524.461L-521.367 139.145H-534.023L-537.047 155H-540.141L-537.117 139.145H-547.066V136.367H-536.555L-533.883 122.375H-544.324V119.562H-533.391L-530.367 103.602H-527.168L-530.297 119.562H-517.465L-514.371 103.602H-511.348L-514.441 119.562H-504.422V122.375H-515.004ZM-533.531 136.367H-520.77L-518.027 122.375H-530.789L-533.531 136.367ZM-469.406 155V130.215C-469.406 126.371 -470.215 123.582 -471.832 121.848C-473.449 120.09 -475.957 119.211 -479.355 119.211C-483.926 119.211 -487.277 120.371 -489.41 122.691C-491.52 124.988 -492.574 128.727 -492.574 133.906V155H-496.055V116.785H-493.102L-492.434 122.023H-492.223C-489.738 118.039 -485.32 116.047 -478.969 116.047C-470.297 116.047 -465.961 120.699 -465.961 130.004V155H-469.406ZM-450.105 155H-453.586V116.785H-450.105V155ZM-454.078 106.168C-454.078 103.918 -453.34 102.793 -451.863 102.793C-451.137 102.793 -450.574 103.086 -450.176 103.672C-449.754 104.258 -449.543 105.09 -449.543 106.168C-449.543 107.223 -449.754 108.055 -450.176 108.664C-450.574 109.273 -451.137 109.578 -451.863 109.578C-453.34 109.578 -454.078 108.441 -454.078 106.168ZM-407.461 116.785V119.211L-415.371 119.703C-413.262 122.328 -412.207 125.211 -412.207 128.352C-412.207 132.031 -413.438 135.02 -415.898 137.316C-418.336 139.59 -421.617 140.727 -425.742 140.727C-427.477 140.727 -428.695 140.656 -429.398 140.516C-430.781 141.242 -431.836 142.098 -432.562 143.082C-433.289 144.066 -433.652 145.109 -433.652 146.211C-433.652 147.43 -433.195 148.32 -432.281 148.883C-431.344 149.445 -429.785 149.727 -427.605 149.727H-420.926C-416.777 149.727 -413.602 150.57 -411.398 152.258C-409.195 153.922 -408.094 156.395 -408.094 159.676C-408.094 163.707 -409.734 166.812 -413.016 168.992C-416.273 171.195 -420.926 172.297 -426.973 172.297C-431.777 172.297 -435.504 171.371 -438.152 169.52C-440.777 167.668 -442.09 165.09 -442.09 161.785C-442.09 159.16 -441.281 156.98 -439.664 155.246C-438.023 153.512 -435.809 152.328 -433.02 151.695C-434.168 151.203 -435.094 150.512 -435.797 149.621C-436.477 148.707 -436.816 147.664 -436.816 146.492C-436.816 143.938 -435.188 141.688 -431.93 139.742C-434.156 138.828 -435.891 137.398 -437.133 135.453C-438.375 133.484 -438.996 131.234 -438.996 128.703C-438.996 124.883 -437.789 121.824 -435.375 119.527C-432.938 117.207 -429.656 116.047 -425.531 116.047C-423.023 116.047 -421.078 116.293 -419.695 116.785H-407.461ZM-438.398 161.469C-438.398 166.719 -434.496 169.344 -426.691 169.344C-416.66 169.344 -411.645 166.145 -411.645 159.746C-411.645 157.449 -412.43 155.785 -414 154.754C-415.57 153.723 -418.113 153.207 -421.629 153.207H-427.887C-434.895 153.207 -438.398 155.961 -438.398 161.469ZM-435.48 128.703C-435.48 131.656 -434.59 133.953 -432.809 135.594C-431.004 137.211 -428.602 138.02 -425.602 138.02C-422.414 138.02 -419.977 137.211 -418.289 135.594C-416.578 133.977 -415.723 131.633 -415.723 128.562C-415.723 125.305 -416.602 122.867 -418.359 121.25C-420.094 119.609 -422.531 118.789 -425.672 118.789C-428.719 118.789 -431.121 119.668 -432.879 121.426C-434.613 123.16 -435.48 125.586 -435.48 128.703ZM-372.938 155V130.215C-372.938 126.371 -373.746 123.582 -375.363 121.848C-376.98 120.09 -379.488 119.211 -382.887 119.211C-387.457 119.211 -390.809 120.371 -392.941 122.691C-395.051 124.988 -396.105 128.727 -396.105 133.906V155H-399.586V100.297H-396.105V117.699L-396.281 122.586H-396.035C-394.605 120.289 -392.801 118.625 -390.621 117.594C-388.441 116.562 -385.734 116.047 -382.5 116.047C-373.828 116.047 -369.492 120.699 -369.492 130.004V155H-372.938ZM-347.027 152.609C-344.824 152.609 -342.902 152.422 -341.262 152.047V154.859C-342.949 155.422 -344.895 155.703 -347.098 155.703C-350.473 155.703 -352.969 154.801 -354.586 152.996C-356.18 151.191 -356.977 148.355 -356.977 144.488V119.809H-362.637V117.77L-356.977 116.188L-355.219 107.539H-353.426V116.785H-342.211V119.809H-353.426V143.996C-353.426 146.926 -352.91 149.094 -351.879 150.5C-350.848 151.906 -349.23 152.609 -347.027 152.609ZM-329.52 155H-333V100.297H-329.52V155ZM-313.207 155H-316.688V116.785H-313.207V155ZM-317.18 106.168C-317.18 103.918 -316.441 102.793 -314.965 102.793C-314.238 102.793 -313.676 103.086 -313.277 103.672C-312.855 104.258 -312.645 105.09 -312.645 106.168C-312.645 107.223 -312.855 108.055 -313.277 108.664C-313.676 109.273 -314.238 109.578 -314.965 109.578C-316.441 109.578 -317.18 108.441 -317.18 106.168ZM-286.172 119.809H-295.172V155H-298.652V119.809H-305.754V117.77L-298.652 116.469V113.516C-298.652 108.828 -297.797 105.395 -296.086 103.215C-294.352 101.012 -291.527 99.9102 -287.613 99.9102C-285.504 99.9102 -283.395 100.227 -281.285 100.859L-282.094 103.883C-283.969 103.297 -285.832 103.004 -287.684 103.004C-290.402 103.004 -292.336 103.812 -293.484 105.43C-294.609 107.023 -295.172 109.625 -295.172 113.234V116.785H-286.172V119.809ZM-263.355 155.703C-268.91 155.703 -273.246 153.992 -276.363 150.57C-279.457 147.148 -281.004 142.355 -281.004 136.191C-281.004 130.098 -279.504 125.223 -276.504 121.566C-273.504 117.887 -269.461 116.047 -264.375 116.047C-259.875 116.047 -256.324 117.617 -253.723 120.758C-251.121 123.898 -249.82 128.164 -249.82 133.555V136.367H-277.348C-277.301 141.617 -276.082 145.625 -273.691 148.391C-271.277 151.156 -267.832 152.539 -263.355 152.539C-261.176 152.539 -259.266 152.387 -257.625 152.082C-255.961 151.777 -253.863 151.121 -251.332 150.113V153.277C-253.488 154.215 -255.48 154.848 -257.309 155.176C-259.137 155.527 -261.152 155.703 -263.355 155.703ZM-264.375 119.141C-268.055 119.141 -271.008 120.359 -273.234 122.797C-275.461 125.211 -276.762 128.703 -277.137 133.273H-253.512C-253.512 128.844 -254.473 125.387 -256.395 122.902C-258.316 120.395 -260.977 119.141 -264.375 119.141ZM-155.566 122.375L-158.238 136.367H-147.586V139.145H-158.836L-161.859 155H-165.023L-161.93 139.145H-174.586L-177.609 155H-180.703L-177.68 139.145H-187.629V136.367H-177.117L-174.445 122.375H-184.887V119.562H-173.953L-170.93 103.602H-167.73L-170.859 119.562H-158.027L-154.934 103.602H-151.91L-155.004 119.562H-144.984V122.375H-155.566ZM-174.094 136.367H-161.332L-158.59 122.375H-171.352L-174.094 136.367ZM-133.137 155H-136.617V100.297H-133.137V155ZM-88.6992 135.84C-88.6992 142.074 -90.2109 146.949 -93.2344 150.465C-96.2578 153.957 -100.43 155.703 -105.75 155.703C-109.102 155.703 -112.055 154.895 -114.609 153.277C-117.164 151.66 -119.121 149.34 -120.48 146.316C-121.84 143.293 -122.52 139.801 -122.52 135.84C-122.52 129.605 -121.008 124.754 -117.984 121.285C-114.961 117.793 -110.812 116.047 -105.539 116.047C-100.289 116.047 -96.1758 117.816 -93.1992 121.355C-90.1992 124.871 -88.6992 129.699 -88.6992 135.84ZM-118.863 135.84C-118.863 141.09 -117.715 145.191 -115.418 148.145C-113.098 151.074 -109.828 152.539 -105.609 152.539C-101.391 152.539 -98.1328 151.074 -95.8359 148.145C-93.5156 145.191 -92.3555 141.09 -92.3555 135.84C-92.3555 130.566 -93.5273 126.477 -95.8711 123.57C-98.1914 120.664 -101.461 119.211 -105.68 119.211C-109.898 119.211 -113.156 120.664 -115.453 123.57C-117.727 126.453 -118.863 130.543 -118.863 135.84ZM-51.4688 155V130.215C-51.4688 126.371 -52.2773 123.582 -53.8945 121.848C-55.5117 120.09 -58.0195 119.211 -61.418 119.211C-65.9883 119.211 -69.3398 120.371 -71.4727 122.691C-73.582 124.988 -74.6367 128.727 -74.6367 133.906V155H-78.1172V116.785H-75.1641L-74.4961 122.023H-74.2852C-71.8008 118.039 -67.3828 116.047 -61.0312 116.047C-52.3594 116.047 -48.0234 120.699 -48.0234 130.004V155H-51.4688ZM-5.83594 116.785V119.211L-13.7461 119.703C-11.6367 122.328 -10.582 125.211 -10.582 128.352C-10.582 132.031 -11.8125 135.02 -14.2734 137.316C-16.7109 139.59 -19.9922 140.727 -24.1172 140.727C-25.8516 140.727 -27.0703 140.656 -27.7734 140.516C-29.1562 141.242 -30.2109 142.098 -30.9375 143.082C-31.6641 144.066 -32.0273 145.109 -32.0273 146.211C-32.0273 147.43 -31.5703 148.32 -30.6562 148.883C-29.7188 149.445 -28.1602 149.727 -25.9805 149.727H-19.3008C-15.1523 149.727 -11.9766 150.57 -9.77344 152.258C-7.57031 153.922 -6.46875 156.395 -6.46875 159.676C-6.46875 163.707 -8.10938 166.812 -11.3906 168.992C-14.6484 171.195 -19.3008 172.297 -25.3477 172.297C-30.1523 172.297 -33.8789 171.371 -36.5273 169.52C-39.1523 167.668 -40.4648 165.09 -40.4648 161.785C-40.4648 159.16 -39.6562 156.98 -38.0391 155.246C-36.3984 153.512 -34.1836 152.328 -31.3945 151.695C-32.543 151.203 -33.4688 150.512 -34.1719 149.621C-34.8516 148.707 -35.1914 147.664 -35.1914 146.492C-35.1914 143.938 -33.5625 141.688 -30.3047 139.742C-32.5312 138.828 -34.2656 137.398 -35.5078 135.453C-36.75 133.484 -37.3711 131.234 -37.3711 128.703C-37.3711 124.883 -36.1641 121.824 -33.75 119.527C-31.3125 117.207 -28.0312 116.047 -23.9062 116.047C-21.3984 116.047 -19.4531 116.293 -18.0703 116.785H-5.83594ZM-36.7734 161.469C-36.7734 166.719 -32.8711 169.344 -25.0664 169.344C-15.0352 169.344 -10.0195 166.145 -10.0195 159.746C-10.0195 157.449 -10.8047 155.785 -12.375 154.754C-13.9453 153.723 -16.4883 153.207 -20.0039 153.207H-26.2617C-33.2695 153.207 -36.7734 155.961 -36.7734 161.469ZM-33.8555 128.703C-33.8555 131.656 -32.9648 133.953 -31.1836 135.594C-29.3789 137.211 -26.9766 138.02 -23.9766 138.02C-20.7891 138.02 -18.3516 137.211 -16.6641 135.594C-14.9531 133.977 -14.0977 131.633 -14.0977 128.562C-14.0977 125.305 -14.9766 122.867 -16.7344 121.25C-18.4688 119.609 -20.9062 118.789 -24.0469 118.789C-27.0938 118.789 -29.4961 119.668 -31.2539 121.426C-32.9883 123.16 -33.8555 125.586 -33.8555 128.703ZM18.1758 116.047C23.5195 116.047 27.5391 117.734 30.2344 121.109C32.9531 124.461 34.3125 129.371 34.3125 135.84C34.3125 142.191 32.8828 147.09 30.0234 150.535C27.1875 153.98 23.1914 155.703 18.0352 155.703C15.3164 155.703 12.8672 155.141 10.6875 154.016C8.50781 152.891 6.78516 151.297 5.51953 149.234H5.20312L4.21875 155H2.03906V100.297H5.51953V114.043C5.51953 116.105 5.47266 118.004 5.37891 119.738L5.27344 122.727H5.51953C6.97266 120.43 8.71875 118.742 10.7578 117.664C12.8203 116.586 15.293 116.047 18.1758 116.047ZM18.1055 119.211C13.6055 119.211 10.3828 120.5 8.4375 123.078C6.49219 125.656 5.51953 129.91 5.51953 135.84V136.438C5.51953 142.203 6.52734 146.34 8.54297 148.848C10.582 151.355 13.7461 152.609 18.0352 152.609C22.207 152.609 25.3477 151.156 27.457 148.25C29.5664 145.32 30.6211 141.16 30.6211 135.77C30.6211 124.73 26.4492 119.211 18.1055 119.211ZM76.5352 135.84C76.5352 142.074 75.0234 146.949 72 150.465C68.9766 153.957 64.8047 155.703 59.4844 155.703C56.1328 155.703 53.1797 154.895 50.625 153.277C48.0703 151.66 46.1133 149.34 44.7539 146.316C43.3945 143.293 42.7148 139.801 42.7148 135.84C42.7148 129.605 44.2266 124.754 47.25 121.285C50.2734 117.793 54.4219 116.047 59.6953 116.047C64.9453 116.047 69.0586 117.816 72.0352 121.355C75.0352 124.871 76.5352 129.699 76.5352 135.84ZM46.3711 135.84C46.3711 141.09 47.5195 145.191 49.8164 148.145C52.1367 151.074 55.4062 152.539 59.625 152.539C63.8438 152.539 67.1016 151.074 69.3984 148.145C71.7188 145.191 72.8789 141.09 72.8789 135.84C72.8789 130.566 71.707 126.477 69.3633 123.57C67.043 120.664 63.7734 119.211 59.5547 119.211C55.3359 119.211 52.0781 120.664 49.7812 123.57C47.5078 126.453 46.3711 130.543 46.3711 135.84ZM110.32 155L109.441 148.953H109.16C107.238 151.414 105.258 153.16 103.219 154.191C101.203 155.199 98.8125 155.703 96.0469 155.703C92.2969 155.703 89.3789 154.742 87.293 152.82C85.207 150.898 84.1641 148.238 84.1641 144.84C84.1641 141.113 85.7109 138.219 88.8047 136.156C91.9219 134.094 96.4219 133.004 102.305 132.887L109.582 132.676V130.145C109.582 126.512 108.844 123.77 107.367 121.918C105.891 120.066 103.512 119.141 100.23 119.141C96.6914 119.141 93.0234 120.125 89.2266 122.094L87.9258 119.07C92.1211 117.102 96.2695 116.117 100.371 116.117C104.566 116.117 107.695 117.207 109.758 119.387C111.844 121.566 112.887 124.965 112.887 129.582V155H110.32ZM96.2578 152.539C100.336 152.539 103.547 151.379 105.891 149.059C108.258 146.715 109.441 143.469 109.441 139.32V135.559L102.762 135.84C97.3945 136.098 93.5625 136.941 91.2656 138.371C88.9922 139.777 87.8555 141.98 87.8555 144.98C87.8555 147.371 88.582 149.234 90.0352 150.57C91.5117 151.883 93.5859 152.539 96.2578 152.539ZM140.344 116.047C141.961 116.047 143.695 116.211 145.547 116.539L144.879 119.879C143.285 119.48 141.633 119.281 139.922 119.281C136.664 119.281 133.992 120.664 131.906 123.43C129.82 126.195 128.777 129.688 128.777 133.906V155H125.297V116.785H128.25L128.602 123.676H128.848C130.418 120.863 132.094 118.895 133.875 117.77C135.656 116.621 137.812 116.047 140.344 116.047ZM167.344 116.047C170.109 116.047 172.5 116.551 174.516 117.559C176.531 118.566 178.336 120.289 179.93 122.727H180.141C180 119.773 179.93 116.879 179.93 114.043V100.297H183.375V155H181.09L180.211 149.164H179.93C177.023 153.523 172.852 155.703 167.414 155.703C162.141 155.703 158.109 154.062 155.32 150.781C152.531 147.5 151.137 142.719 151.137 136.438C151.137 129.828 152.52 124.777 155.285 121.285C158.051 117.793 162.07 116.047 167.344 116.047ZM167.344 119.211C163.172 119.211 160.031 120.676 157.922 123.605C155.836 126.535 154.793 130.789 154.793 136.367C154.793 147.195 159 152.609 167.414 152.609C171.727 152.609 174.891 151.355 176.906 148.848C178.922 146.34 179.93 142.203 179.93 136.438V135.84C179.93 129.934 178.934 125.691 176.941 123.113C174.973 120.512 171.773 119.211 167.344 119.211ZM279.949 122.375L277.277 136.367H287.93V139.145H276.68L273.656 155H270.492L273.586 139.145H260.93L257.906 155H254.812L257.836 139.145H247.887V136.367H258.398L261.07 122.375H250.629V119.562H261.562L264.586 103.602H267.785L264.656 119.562H277.488L280.582 103.602H283.605L280.512 119.562H290.531V122.375H279.949ZM261.422 136.367H274.184L276.926 122.375H264.164L261.422 136.367ZM293.801 172.297C291.926 172.297 290.344 172.004 289.055 171.418V168.395C290.672 168.863 292.184 169.098 293.59 169.098C297.129 169.098 298.898 167.035 298.898 162.91V116.785H302.379V162.418C302.379 165.582 301.629 168.02 300.129 169.73C298.652 171.441 296.543 172.297 293.801 172.297ZM298.406 106.168C298.406 103.918 299.145 102.793 300.621 102.793C301.348 102.793 301.91 103.086 302.309 103.672C302.73 104.258 302.941 105.09 302.941 106.168C302.941 107.223 302.73 108.055 302.309 108.664C301.91 109.273 301.348 109.578 300.621 109.578C299.145 109.578 298.406 108.441 298.406 106.168ZM318.234 116.785V141.535C318.234 145.379 319.043 148.18 320.66 149.938C322.277 151.672 324.785 152.539 328.184 152.539C332.73 152.539 336.07 151.391 338.203 149.094C340.359 146.797 341.438 143.059 341.438 137.879V116.785H344.883V155H341.93L341.297 149.727H341.086C338.602 153.711 334.184 155.703 327.832 155.703C319.137 155.703 314.789 151.051 314.789 141.746V116.785H318.234ZM381.375 145.051C381.375 148.473 380.074 151.109 377.473 152.961C374.871 154.789 371.18 155.703 366.398 155.703C361.289 155.703 357.234 154.918 354.234 153.348V149.586C358.078 151.508 362.133 152.469 366.398 152.469C370.172 152.469 373.031 151.848 374.977 150.605C376.945 149.34 377.93 147.664 377.93 145.578C377.93 143.656 377.145 142.039 375.574 140.727C374.027 139.414 371.473 138.125 367.91 136.859C364.09 135.477 361.406 134.293 359.859 133.309C358.312 132.301 357.141 131.176 356.344 129.934C355.57 128.668 355.184 127.133 355.184 125.328C355.184 122.469 356.379 120.207 358.77 118.543C361.184 116.879 364.547 116.047 368.859 116.047C372.984 116.047 376.898 116.82 380.602 118.367L379.301 121.531C375.551 119.984 372.07 119.211 368.859 119.211C365.742 119.211 363.27 119.727 361.441 120.758C359.613 121.789 358.699 123.219 358.699 125.047C358.699 127.039 359.402 128.633 360.809 129.828C362.238 131.023 365.016 132.359 369.141 133.836C372.586 135.078 375.094 136.203 376.664 137.211C378.234 138.195 379.406 139.32 380.18 140.586C380.977 141.852 381.375 143.34 381.375 145.051ZM401.309 152.609C403.512 152.609 405.434 152.422 407.074 152.047V154.859C405.387 155.422 403.441 155.703 401.238 155.703C397.863 155.703 395.367 154.801 393.75 152.996C392.156 151.191 391.359 148.355 391.359 144.488V119.809H385.699V117.77L391.359 116.188L393.117 107.539H394.91V116.785H406.125V119.809H394.91V143.996C394.91 146.926 395.426 149.094 396.457 150.5C397.488 151.906 399.105 152.609 401.309 152.609ZM430.594 155.703C425.133 155.703 420.855 153.98 417.762 150.535C414.668 147.09 413.121 142.285 413.121 136.121C413.121 129.793 414.727 124.871 417.938 121.355C421.148 117.816 425.543 116.047 431.121 116.047C434.426 116.047 437.59 116.621 440.613 117.77L439.664 120.863C436.359 119.762 433.488 119.211 431.051 119.211C426.363 119.211 422.812 120.664 420.398 123.57C417.984 126.453 416.777 130.613 416.777 136.051C416.777 141.207 417.984 145.25 420.398 148.18C422.812 151.086 426.188 152.539 430.523 152.539C433.992 152.539 437.215 151.918 440.191 150.676V153.91C437.754 155.105 434.555 155.703 430.594 155.703ZM476.227 155V130.215C476.227 126.371 475.418 123.582 473.801 121.848C472.184 120.09 469.676 119.211 466.277 119.211C461.707 119.211 458.355 120.371 456.223 122.691C454.113 124.988 453.059 128.727 453.059 133.906V155H449.578V100.297H453.059V117.699L452.883 122.586H453.129C454.559 120.289 456.363 118.625 458.543 117.594C460.723 116.562 463.43 116.047 466.664 116.047C475.336 116.047 479.672 120.699 479.672 130.004V155H476.227ZM495.527 155H492.047V116.785H495.527V155ZM491.555 106.168C491.555 103.918 492.293 102.793 493.77 102.793C494.496 102.793 495.059 103.086 495.457 103.672C495.879 104.258 496.09 105.09 496.09 106.168C496.09 107.223 495.879 108.055 495.457 108.664C495.059 109.273 494.496 109.578 493.77 109.578C492.293 109.578 491.555 108.441 491.555 106.168ZM511.84 155H508.359V100.297H511.84V155ZM528.152 155H524.672V100.297H528.152V155ZM544.465 155H540.984V116.785H544.465V155ZM540.492 106.168C540.492 103.918 541.23 102.793 542.707 102.793C543.434 102.793 543.996 103.086 544.395 103.672C544.816 104.258 545.027 105.09 545.027 106.168C545.027 107.223 544.816 108.055 544.395 108.664C543.996 109.273 543.434 109.578 542.707 109.578C541.23 109.578 540.492 108.441 540.492 106.168ZM583.945 155V130.215C583.945 126.371 583.137 123.582 581.52 121.848C579.902 120.09 577.395 119.211 573.996 119.211C569.426 119.211 566.074 120.371 563.941 122.691C561.832 124.988 560.777 128.727 560.777 133.906V155H557.297V116.785H560.25L560.918 122.023H561.129C563.613 118.039 568.031 116.047 574.383 116.047C583.055 116.047 587.391 120.699 587.391 130.004V155H583.945ZM629.578 116.785V119.211L621.668 119.703C623.777 122.328 624.832 125.211 624.832 128.352C624.832 132.031 623.602 135.02 621.141 137.316C618.703 139.59 615.422 140.727 611.297 140.727C609.562 140.727 608.344 140.656 607.641 140.516C606.258 141.242 605.203 142.098 604.477 143.082C603.75 144.066 603.387 145.109 603.387 146.211C603.387 147.43 603.844 148.32 604.758 148.883C605.695 149.445 607.254 149.727 609.434 149.727H616.113C620.262 149.727 623.438 150.57 625.641 152.258C627.844 153.922 628.945 156.395 628.945 159.676C628.945 163.707 627.305 166.812 624.023 168.992C620.766 171.195 616.113 172.297 610.066 172.297C605.262 172.297 601.535 171.371 598.887 169.52C596.262 167.668 594.949 165.09 594.949 161.785C594.949 159.16 595.758 156.98 597.375 155.246C599.016 153.512 601.23 152.328 604.02 151.695C602.871 151.203 601.945 150.512 601.242 149.621C600.562 148.707 600.223 147.664 600.223 146.492C600.223 143.938 601.852 141.688 605.109 139.742C602.883 138.828 601.148 137.398 599.906 135.453C598.664 133.484 598.043 131.234 598.043 128.703C598.043 124.883 599.25 121.824 601.664 119.527C604.102 117.207 607.383 116.047 611.508 116.047C614.016 116.047 615.961 116.293 617.344 116.785H629.578ZM598.641 161.469C598.641 166.719 602.543 169.344 610.348 169.344C620.379 169.344 625.395 166.145 625.395 159.746C625.395 157.449 624.609 155.785 623.039 154.754C621.469 153.723 618.926 153.207 615.41 153.207H609.152C602.145 153.207 598.641 155.961 598.641 161.469ZM601.559 128.703C601.559 131.656 602.449 133.953 604.23 135.594C606.035 137.211 608.438 138.02 611.438 138.02C614.625 138.02 617.062 137.211 618.75 135.594C620.461 133.977 621.316 131.633 621.316 128.562C621.316 125.305 620.438 122.867 618.68 121.25C616.945 119.609 614.508 118.789 611.367 118.789C608.32 118.789 605.918 119.668 604.16 121.426C602.426 123.16 601.559 125.586 601.559 128.703ZM721.16 122.375L718.488 136.367H729.141V139.145H717.891L714.867 155H711.703L714.797 139.145H702.141L699.117 155H696.023L699.047 139.145H689.098V136.367H699.609L702.281 122.375H691.84V119.562H702.773L705.797 103.602H708.996L705.867 119.562H718.699L721.793 103.602H724.816L721.723 119.562H731.742V122.375H721.16ZM702.633 136.367H715.395L718.137 122.375H705.375L702.633 136.367ZM756.246 116.047C761.59 116.047 765.609 117.734 768.305 121.109C771.023 124.461 772.383 129.371 772.383 135.84C772.383 142.191 770.953 147.09 768.094 150.535C765.258 153.98 761.262 155.703 756.105 155.703C753.387 155.703 750.938 155.141 748.758 154.016C746.578 152.891 744.855 151.297 743.59 149.234H743.273L742.289 155H740.109V100.297H743.59V114.043C743.59 116.105 743.543 118.004 743.449 119.738L743.344 122.727H743.59C745.043 120.43 746.789 118.742 748.828 117.664C750.891 116.586 753.363 116.047 756.246 116.047ZM756.176 119.211C751.676 119.211 748.453 120.5 746.508 123.078C744.562 125.656 743.59 129.91 743.59 135.84V136.438C743.59 142.203 744.598 146.34 746.613 148.848C748.652 151.355 751.816 152.609 756.105 152.609C760.277 152.609 763.418 151.156 765.527 148.25C767.637 145.32 768.691 141.16 768.691 135.77C768.691 124.73 764.52 119.211 756.176 119.211ZM814.605 135.84C814.605 142.074 813.094 146.949 810.07 150.465C807.047 153.957 802.875 155.703 797.555 155.703C794.203 155.703 791.25 154.895 788.695 153.277C786.141 151.66 784.184 149.34 782.824 146.316C781.465 143.293 780.785 139.801 780.785 135.84C780.785 129.605 782.297 124.754 785.32 121.285C788.344 117.793 792.492 116.047 797.766 116.047C803.016 116.047 807.129 117.816 810.105 121.355C813.105 124.871 814.605 129.699 814.605 135.84ZM784.441 135.84C784.441 141.09 785.59 145.191 787.887 148.145C790.207 151.074 793.477 152.539 797.695 152.539C801.914 152.539 805.172 151.074 807.469 148.145C809.789 145.191 810.949 141.09 810.949 135.84C810.949 130.566 809.777 126.477 807.434 123.57C805.113 120.664 801.844 119.211 797.625 119.211C793.406 119.211 790.148 120.664 787.852 123.57C785.578 126.453 784.441 130.543 784.441 135.84ZM848.391 155L847.512 148.953H847.23C845.309 151.414 843.328 153.16 841.289 154.191C839.273 155.199 836.883 155.703 834.117 155.703C830.367 155.703 827.449 154.742 825.363 152.82C823.277 150.898 822.234 148.238 822.234 144.84C822.234 141.113 823.781 138.219 826.875 136.156C829.992 134.094 834.492 133.004 840.375 132.887L847.652 132.676V130.145C847.652 126.512 846.914 123.77 845.438 121.918C843.961 120.066 841.582 119.141 838.301 119.141C834.762 119.141 831.094 120.125 827.297 122.094L825.996 119.07C830.191 117.102 834.34 116.117 838.441 116.117C842.637 116.117 845.766 117.207 847.828 119.387C849.914 121.566 850.957 124.965 850.957 129.582V155H848.391ZM834.328 152.539C838.406 152.539 841.617 151.379 843.961 149.059C846.328 146.715 847.512 143.469 847.512 139.32V135.559L840.832 135.84C835.465 136.098 831.633 136.941 829.336 138.371C827.062 139.777 825.926 141.98 825.926 144.98C825.926 147.371 826.652 149.234 828.105 150.57C829.582 151.883 831.656 152.539 834.328 152.539ZM878.414 116.047C880.031 116.047 881.766 116.211 883.617 116.539L882.949 119.879C881.355 119.48 879.703 119.281 877.992 119.281C874.734 119.281 872.062 120.664 869.977 123.43C867.891 126.195 866.848 129.688 866.848 133.906V155H863.367V116.785H866.32L866.672 123.676H866.918C868.488 120.863 870.164 118.895 871.945 117.77C873.727 116.621 875.883 116.047 878.414 116.047ZM905.414 116.047C908.18 116.047 910.57 116.551 912.586 117.559C914.602 118.566 916.406 120.289 918 122.727H918.211C918.07 119.773 918 116.879 918 114.043V100.297H921.445V155H919.16L918.281 149.164H918C915.094 153.523 910.922 155.703 905.484 155.703C900.211 155.703 896.18 154.062 893.391 150.781C890.602 147.5 889.207 142.719 889.207 136.438C889.207 129.828 890.59 124.777 893.355 121.285C896.121 117.793 900.141 116.047 905.414 116.047ZM905.414 119.211C901.242 119.211 898.102 120.676 895.992 123.605C893.906 126.535 892.863 130.789 892.863 136.367C892.863 147.195 897.07 152.609 905.484 152.609C909.797 152.609 912.961 151.355 914.977 148.848C916.992 146.34 918 142.203 918 136.438V135.84C918 129.934 917.004 125.691 915.012 123.113C913.043 120.512 909.844 119.211 905.414 119.211ZM964.125 116.785V119.211L956.215 119.703C958.324 122.328 959.379 125.211 959.379 128.352C959.379 132.031 958.148 135.02 955.688 137.316C953.25 139.59 949.969 140.727 945.844 140.727C944.109 140.727 942.891 140.656 942.188 140.516C940.805 141.242 939.75 142.098 939.023 143.082C938.297 144.066 937.934 145.109 937.934 146.211C937.934 147.43 938.391 148.32 939.305 148.883C940.242 149.445 941.801 149.727 943.98 149.727H950.66C954.809 149.727 957.984 150.57 960.188 152.258C962.391 153.922 963.492 156.395 963.492 159.676C963.492 163.707 961.852 166.812 958.57 168.992C955.312 171.195 950.66 172.297 944.613 172.297C939.809 172.297 936.082 171.371 933.434 169.52C930.809 167.668 929.496 165.09 929.496 161.785C929.496 159.16 930.305 156.98 931.922 155.246C933.562 153.512 935.777 152.328 938.566 151.695C937.418 151.203 936.492 150.512 935.789 149.621C935.109 148.707 934.77 147.664 934.77 146.492C934.77 143.938 936.398 141.688 939.656 139.742C937.43 138.828 935.695 137.398 934.453 135.453C933.211 133.484 932.59 131.234 932.59 128.703C932.59 124.883 933.797 121.824 936.211 119.527C938.648 117.207 941.93 116.047 946.055 116.047C948.562 116.047 950.508 116.293 951.891 116.785H964.125ZM933.188 161.469C933.188 166.719 937.09 169.344 944.895 169.344C954.926 169.344 959.941 166.145 959.941 159.746C959.941 157.449 959.156 155.785 957.586 154.754C956.016 153.723 953.473 153.207 949.957 153.207H943.699C936.691 153.207 933.188 155.961 933.188 161.469ZM936.105 128.703C936.105 131.656 936.996 133.953 938.777 135.594C940.582 137.211 942.984 138.02 945.984 138.02C949.172 138.02 951.609 137.211 953.297 135.594C955.008 133.977 955.863 131.633 955.863 128.562C955.863 125.305 954.984 122.867 953.227 121.25C951.492 119.609 949.055 118.789 945.914 118.789C942.867 118.789 940.465 119.668 938.707 121.426C936.973 123.16 936.105 125.586 936.105 128.703ZM995.203 155L994.324 148.953H994.043C992.121 151.414 990.141 153.16 988.102 154.191C986.086 155.199 983.695 155.703 980.93 155.703C977.18 155.703 974.262 154.742 972.176 152.82C970.09 150.898 969.047 148.238 969.047 144.84C969.047 141.113 970.594 138.219 973.688 136.156C976.805 134.094 981.305 133.004 987.188 132.887L994.465 132.676V130.145C994.465 126.512 993.727 123.77 992.25 121.918C990.773 120.066 988.395 119.141 985.113 119.141C981.574 119.141 977.906 120.125 974.109 122.094L972.809 119.07C977.004 117.102 981.152 116.117 985.254 116.117C989.449 116.117 992.578 117.207 994.641 119.387C996.727 121.566 997.77 124.965 997.77 129.582V155H995.203ZM981.141 152.539C985.219 152.539 988.43 151.379 990.773 149.059C993.141 146.715 994.324 143.469 994.324 139.32V135.559L987.645 135.84C982.277 136.098 978.445 136.941 976.148 138.371C973.875 139.777 972.738 141.98 972.738 144.98C972.738 147.371 973.465 149.234 974.918 150.57C976.395 151.883 978.469 152.539 981.141 152.539ZM1057.92 155V129.934C1057.92 126.207 1057.2 123.488 1055.74 121.777C1054.29 120.066 1052.06 119.211 1049.06 119.211C1045.15 119.211 1042.25 120.289 1040.38 122.445C1038.5 124.602 1037.57 127.988 1037.57 132.605V155H1034.02V128.879C1034.02 122.434 1031.06 119.211 1025.16 119.211C1021.15 119.211 1018.23 120.383 1016.4 122.727C1014.57 125.047 1013.66 128.773 1013.66 133.906V155H1010.18V116.785H1013.06L1013.8 122.023H1014.01C1015.07 120.125 1016.57 118.66 1018.51 117.629C1020.46 116.574 1022.6 116.047 1024.95 116.047C1030.97 116.047 1034.84 118.309 1036.55 122.832H1036.69C1037.93 120.652 1039.59 118.977 1041.68 117.805C1043.79 116.633 1046.18 116.047 1048.85 116.047C1053.02 116.047 1056.15 117.16 1058.24 119.387C1060.32 121.613 1061.37 125.152 1061.37 130.004V155H1057.92ZM1089.18 155.703C1083.62 155.703 1079.29 153.992 1076.17 150.57C1073.07 147.148 1071.53 142.355 1071.53 136.191C1071.53 130.098 1073.03 125.223 1076.03 121.566C1079.03 117.887 1083.07 116.047 1088.16 116.047C1092.66 116.047 1096.21 117.617 1098.81 120.758C1101.41 123.898 1102.71 128.164 1102.71 133.555V136.367H1075.18C1075.23 141.617 1076.45 145.625 1078.84 148.391C1081.25 151.156 1084.7 152.539 1089.18 152.539C1091.36 152.539 1093.27 152.387 1094.91 152.082C1096.57 151.777 1098.67 151.121 1101.2 150.113V153.277C1099.04 154.215 1097.05 154.848 1095.22 155.176C1093.39 155.527 1091.38 155.703 1089.18 155.703ZM1088.16 119.141C1084.48 119.141 1081.52 120.359 1079.3 122.797C1077.07 125.211 1075.77 128.703 1075.39 133.273H1099.02C1099.02 128.844 1098.06 125.387 1096.14 122.902C1094.21 120.395 1091.55 119.141 1088.16 119.141ZM1136.95 145.051C1136.95 148.473 1135.65 151.109 1133.05 152.961C1130.45 154.789 1126.76 155.703 1121.98 155.703C1116.87 155.703 1112.81 154.918 1109.81 153.348V149.586C1113.66 151.508 1117.71 152.469 1121.98 152.469C1125.75 152.469 1128.61 151.848 1130.55 150.605C1132.52 149.34 1133.51 147.664 1133.51 145.578C1133.51 143.656 1132.72 142.039 1131.15 140.727C1129.61 139.414 1127.05 138.125 1123.49 136.859C1119.67 135.477 1116.98 134.293 1115.44 133.309C1113.89 132.301 1112.72 131.176 1111.92 129.934C1111.15 128.668 1110.76 127.133 1110.76 125.328C1110.76 122.469 1111.96 120.207 1114.35 118.543C1116.76 116.879 1120.12 116.047 1124.44 116.047C1128.56 116.047 1132.48 116.82 1136.18 118.367L1134.88 121.531C1131.13 119.984 1127.65 119.211 1124.44 119.211C1121.32 119.211 1118.85 119.727 1117.02 120.758C1115.19 121.789 1114.28 123.219 1114.28 125.047C1114.28 127.039 1114.98 128.633 1116.39 129.828C1117.82 131.023 1120.59 132.359 1124.72 133.836C1128.16 135.078 1130.67 136.203 1132.24 137.211C1133.81 138.195 1134.98 139.32 1135.76 140.586C1136.55 141.852 1136.95 143.34 1136.95 145.051ZM1230.5 122.375L1227.83 136.367H1238.48V139.145H1227.23L1224.21 155H1221.05L1224.14 139.145H1211.48L1208.46 155H1205.37L1208.39 139.145H1198.44V136.367H1208.95L1211.62 122.375H1201.18V119.562H1212.12L1215.14 103.602H1218.34L1215.21 119.562H1228.04L1231.14 103.602H1234.16L1231.07 119.562H1241.09V122.375H1230.5ZM1211.98 136.367H1224.74L1227.48 122.375H1214.72L1211.98 136.367ZM1276.1 155V130.215C1276.1 126.371 1275.29 123.582 1273.68 121.848C1272.06 120.09 1269.55 119.211 1266.15 119.211C1261.58 119.211 1258.23 120.371 1256.1 122.691C1253.99 124.988 1252.93 128.727 1252.93 133.906V155H1249.45V100.297H1252.93V117.699L1252.76 122.586H1253C1254.43 120.289 1256.24 118.625 1258.42 117.594C1260.6 116.562 1263.3 116.047 1266.54 116.047C1275.21 116.047 1279.55 120.699 1279.55 130.004V155H1276.1ZM1323.53 135.84C1323.53 142.074 1322.02 146.949 1318.99 150.465C1315.97 153.957 1311.8 155.703 1306.48 155.703C1303.12 155.703 1300.17 154.895 1297.62 153.277C1295.06 151.66 1293.11 149.34 1291.75 146.316C1290.39 143.293 1289.71 139.801 1289.71 135.84C1289.71 129.605 1291.22 124.754 1294.24 121.285C1297.27 117.793 1301.41 116.047 1306.69 116.047C1311.94 116.047 1316.05 117.816 1319.03 121.355C1322.03 124.871 1323.53 129.699 1323.53 135.84ZM1293.36 135.84C1293.36 141.09 1294.51 145.191 1296.81 148.145C1299.13 151.074 1302.4 152.539 1306.62 152.539C1310.84 152.539 1314.09 151.074 1316.39 148.145C1318.71 145.191 1319.87 141.09 1319.87 135.84C1319.87 130.566 1318.7 126.477 1316.36 123.57C1314.04 120.664 1310.77 119.211 1306.55 119.211C1302.33 119.211 1299.07 120.664 1296.77 123.57C1294.5 126.453 1293.36 130.543 1293.36 135.84ZM1381.85 155V129.934C1381.85 126.207 1381.12 123.488 1379.67 121.777C1378.22 120.066 1375.99 119.211 1372.99 119.211C1369.08 119.211 1366.18 120.289 1364.31 122.445C1362.43 124.602 1361.5 127.988 1361.5 132.605V155H1357.95V128.879C1357.95 122.434 1354.99 119.211 1349.09 119.211C1345.08 119.211 1342.16 120.383 1340.33 122.727C1338.5 125.047 1337.59 128.773 1337.59 133.906V155H1334.11V116.785H1336.99L1337.73 122.023H1337.94C1339 120.125 1340.5 118.66 1342.44 117.629C1344.39 116.574 1346.53 116.047 1348.88 116.047C1354.9 116.047 1358.77 118.309 1360.48 122.832H1360.62C1361.86 120.652 1363.52 118.977 1365.61 117.805C1367.72 116.633 1370.11 116.047 1372.78 116.047C1376.95 116.047 1380.08 117.16 1382.17 119.387C1384.25 121.613 1385.3 125.152 1385.3 130.004V155H1381.85ZM1413.11 155.703C1407.55 155.703 1403.21 153.992 1400.1 150.57C1397 147.148 1395.46 142.355 1395.46 136.191C1395.46 130.098 1396.96 125.223 1399.96 121.566C1402.96 117.887 1407 116.047 1412.09 116.047C1416.59 116.047 1420.14 117.617 1422.74 120.758C1425.34 123.898 1426.64 128.164 1426.64 133.555V136.367H1399.11C1399.16 141.617 1400.38 145.625 1402.77 148.391C1405.18 151.156 1408.63 152.539 1413.11 152.539C1415.29 152.539 1417.2 152.387 1418.84 152.082C1420.5 151.777 1422.6 151.121 1425.13 150.113V153.277C1422.97 154.215 1420.98 154.848 1419.15 155.176C1417.32 155.527 1415.31 155.703 1413.11 155.703ZM1412.09 119.141C1408.41 119.141 1405.45 120.359 1403.23 122.797C1401 125.211 1399.7 128.703 1399.32 133.273H1422.95C1422.95 128.844 1421.99 125.387 1420.07 122.902C1418.14 120.395 1415.48 119.141 1412.09 119.141ZM1453.32 116.047C1458.67 116.047 1462.69 117.734 1465.38 121.109C1468.1 124.461 1469.46 129.371 1469.46 135.84C1469.46 142.191 1468.03 147.09 1465.17 150.535C1462.34 153.98 1458.34 155.703 1453.18 155.703C1450.46 155.703 1448.02 155.141 1445.84 154.016C1443.66 152.891 1441.93 151.297 1440.67 149.234H1440.35L1439.37 155H1437.19V100.297H1440.67V114.043C1440.67 116.105 1440.62 118.004 1440.53 119.738L1440.42 122.727H1440.67C1442.12 120.43 1443.87 118.742 1445.91 117.664C1447.97 116.586 1450.44 116.047 1453.32 116.047ZM1453.25 119.211C1448.75 119.211 1445.53 120.5 1443.59 123.078C1441.64 125.656 1440.67 129.91 1440.67 135.84V136.438C1440.67 142.203 1441.68 146.34 1443.69 148.848C1445.73 151.355 1448.89 152.609 1453.18 152.609C1457.36 152.609 1460.5 151.156 1462.61 148.25C1464.71 145.32 1465.77 141.16 1465.77 135.77C1465.77 124.73 1461.6 119.211 1453.25 119.211ZM1495.12 116.047C1496.74 116.047 1498.48 116.211 1500.33 116.539L1499.66 119.879C1498.07 119.48 1496.41 119.281 1494.7 119.281C1491.45 119.281 1488.77 120.664 1486.69 123.43C1484.6 126.195 1483.56 129.688 1483.56 133.906V155H1480.08V116.785H1483.03L1483.38 123.676H1483.63C1485.2 120.863 1486.88 118.895 1488.66 117.77C1490.44 116.621 1492.59 116.047 1495.12 116.047ZM1523.57 155.703C1518.01 155.703 1513.68 153.992 1510.56 150.57C1507.46 147.148 1505.92 142.355 1505.92 136.191C1505.92 130.098 1507.42 125.223 1510.42 121.566C1513.42 117.887 1517.46 116.047 1522.55 116.047C1527.05 116.047 1530.6 117.617 1533.2 120.758C1535.8 123.898 1537.1 128.164 1537.1 133.555V136.367H1509.57C1509.62 141.617 1510.84 145.625 1513.23 148.391C1515.64 151.156 1519.09 152.539 1523.57 152.539C1525.75 152.539 1527.66 152.387 1529.3 152.082C1530.96 151.777 1533.06 151.121 1535.59 150.113V153.277C1533.43 154.215 1531.44 154.848 1529.61 155.176C1527.79 155.527 1525.77 155.703 1523.57 155.703ZM1522.55 119.141C1518.87 119.141 1515.91 120.359 1513.69 122.797C1511.46 125.211 1510.16 128.703 1509.79 133.273H1533.41C1533.41 128.844 1532.45 125.387 1530.53 122.902C1528.61 120.395 1525.95 119.141 1522.55 119.141ZM1578.2 155L1569.83 129.441C1569.29 127.707 1568.6 125.164 1567.76 121.812H1567.55L1566.81 124.414L1565.23 129.512L1556.72 155H1553.27L1542.34 116.785H1546.07L1552.18 138.934C1553.61 144.418 1554.55 148.449 1555 151.027H1555.21C1556.59 145.543 1557.6 141.898 1558.23 140.094L1566.11 116.785H1569.27L1576.76 140.023C1578.45 145.531 1579.48 149.176 1579.85 150.957H1580.06C1580.25 149.434 1581.19 145.355 1582.88 138.723L1588.71 116.785H1592.23L1581.86 155H1578.2ZM1603.23 155H1599.75V116.785H1603.23V155ZM1599.26 106.168C1599.26 103.918 1600 102.793 1601.47 102.793C1602.2 102.793 1602.76 103.086 1603.16 103.672C1603.58 104.258 1603.79 105.09 1603.79 106.168C1603.79 107.223 1603.58 108.055 1603.16 108.664C1602.76 109.273 1602.2 109.578 1601.47 109.578C1600 109.578 1599.26 108.441 1599.26 106.168ZM1642.71 155V130.215C1642.71 126.371 1641.9 123.582 1640.29 121.848C1638.67 120.09 1636.16 119.211 1632.76 119.211C1628.19 119.211 1624.84 120.371 1622.71 122.691C1620.6 124.988 1619.54 128.727 1619.54 133.906V155H1616.06V116.785H1619.02L1619.68 122.023H1619.89C1622.38 118.039 1626.8 116.047 1633.15 116.047C1641.82 116.047 1646.16 120.699 1646.16 130.004V155H1642.71ZM1688.34 116.785V119.211L1680.43 119.703C1682.54 122.328 1683.6 125.211 1683.6 128.352C1683.6 132.031 1682.37 135.02 1679.91 137.316C1677.47 139.59 1674.19 140.727 1670.06 140.727C1668.33 140.727 1667.11 140.656 1666.41 140.516C1665.02 141.242 1663.97 142.098 1663.24 143.082C1662.52 144.066 1662.15 145.109 1662.15 146.211C1662.15 147.43 1662.61 148.32 1663.52 148.883C1664.46 149.445 1666.02 149.727 1668.2 149.727H1674.88C1679.03 149.727 1682.2 150.57 1684.41 152.258C1686.61 153.922 1687.71 156.395 1687.71 159.676C1687.71 163.707 1686.07 166.812 1682.79 168.992C1679.53 171.195 1674.88 172.297 1668.83 172.297C1664.03 172.297 1660.3 171.371 1657.65 169.52C1655.03 167.668 1653.71 165.09 1653.71 161.785C1653.71 159.16 1654.52 156.98 1656.14 155.246C1657.78 153.512 1660 152.328 1662.79 151.695C1661.64 151.203 1660.71 150.512 1660.01 149.621C1659.33 148.707 1658.99 147.664 1658.99 146.492C1658.99 143.938 1660.62 141.688 1663.88 139.742C1661.65 138.828 1659.91 137.398 1658.67 135.453C1657.43 133.484 1656.81 131.234 1656.81 128.703C1656.81 124.883 1658.02 121.824 1660.43 119.527C1662.87 117.207 1666.15 116.047 1670.27 116.047C1672.78 116.047 1674.73 116.293 1676.11 116.785H1688.34ZM1657.41 161.469C1657.41 166.719 1661.31 169.344 1669.11 169.344C1679.14 169.344 1684.16 166.145 1684.16 159.746C1684.16 157.449 1683.38 155.785 1681.8 154.754C1680.23 153.723 1677.69 153.207 1674.18 153.207H1667.92C1660.91 153.207 1657.41 155.961 1657.41 161.469ZM1660.32 128.703C1660.32 131.656 1661.21 133.953 1663 135.594C1664.8 137.211 1667.2 138.02 1670.2 138.02C1673.39 138.02 1675.83 137.211 1677.52 135.594C1679.23 133.977 1680.08 131.633 1680.08 128.562C1680.08 125.305 1679.2 122.867 1677.45 121.25C1675.71 119.609 1673.27 118.789 1670.13 118.789C1667.09 118.789 1664.68 119.668 1662.93 121.426C1661.19 123.16 1660.32 125.586 1660.32 128.703Z" fill="black" fill-opacity="0.5"/>
<path opacity="0.2" d="M-99.0039 211.375L-101.676 225.367H-91.0234V228.145H-102.273L-105.297 244H-108.461L-105.367 228.145H-118.023L-121.047 244H-124.141L-121.117 228.145H-131.066V225.367H-120.555L-117.883 211.375H-128.324V208.562H-117.391L-114.367 192.602H-111.168L-114.297 208.562H-101.465L-98.3711 192.602H-95.3477L-98.4414 208.562H-88.4219V211.375H-99.0039ZM-117.531 225.367H-104.77L-102.027 211.375H-114.789L-117.531 225.367ZM-49.5039 244L-57.8711 218.441C-58.4102 216.707 -59.1016 214.164 -59.9453 210.812H-60.1562L-60.8945 213.414L-62.4766 218.512L-70.9844 244H-74.4297L-85.3633 205.785H-81.6367L-75.5195 227.934C-74.0898 233.418 -73.1523 237.449 -72.707 240.027H-72.4961C-71.1133 234.543 -70.1055 230.898 -69.4727 229.094L-61.5977 205.785H-58.4336L-50.9453 229.023C-49.2578 234.531 -48.2266 238.176 -47.8516 239.957H-47.6406C-47.4531 238.434 -46.5156 234.355 -44.8281 227.723L-38.9922 205.785H-35.4766L-45.8477 244H-49.5039ZM-4.75 244L-5.62891 237.953H-5.91016C-7.83203 240.414 -9.8125 242.16 -11.8516 243.191C-13.8672 244.199 -16.2578 244.703 -19.0234 244.703C-22.7734 244.703 -25.6914 243.742 -27.7773 241.82C-29.8633 239.898 -30.9062 237.238 -30.9062 233.84C-30.9062 230.113 -29.3594 227.219 -26.2656 225.156C-23.1484 223.094 -18.6484 222.004 -12.7656 221.887L-5.48828 221.676V219.145C-5.48828 215.512 -6.22656 212.77 -7.70312 210.918C-9.17969 209.066 -11.5586 208.141 -14.8398 208.141C-18.3789 208.141 -22.0469 209.125 -25.8438 211.094L-27.1445 208.07C-22.9492 206.102 -18.8008 205.117 -14.6992 205.117C-10.5039 205.117 -7.375 206.207 -5.3125 208.387C-3.22656 210.566 -2.18359 213.965 -2.18359 218.582V244H-4.75ZM-18.8125 241.539C-14.7344 241.539 -11.5234 240.379 -9.17969 238.059C-6.8125 235.715 -5.62891 232.469 -5.62891 228.32V224.559L-12.3086 224.84C-17.6758 225.098 -21.5078 225.941 -23.8047 227.371C-26.0781 228.777 -27.2148 230.98 -27.2148 233.98C-27.2148 236.371 -26.4883 238.234 -25.0352 239.57C-23.5586 240.883 -21.4844 241.539 -18.8125 241.539ZM13.707 244H10.2266V189.297H13.707V244ZM29.9492 227.23L49.4609 205.785H53.6797L38.6328 222.098L54.9805 244H50.7969L36.2773 224.699L30.0195 230.395V244H26.5391V189.297H30.0195V216.719L29.7734 227.23H29.9492ZM64.8945 244H61.4141V205.785H64.8945V244ZM60.9219 195.168C60.9219 192.918 61.6602 191.793 63.1367 191.793C63.8633 191.793 64.4258 192.086 64.8242 192.672C65.2461 193.258 65.457 194.09 65.457 195.168C65.457 196.223 65.2461 197.055 64.8242 197.664C64.4258 198.273 63.8633 198.578 63.1367 198.578C61.6602 198.578 60.9219 197.441 60.9219 195.168ZM104.375 244V219.215C104.375 215.371 103.566 212.582 101.949 210.848C100.332 209.09 97.8242 208.211 94.4258 208.211C89.8555 208.211 86.5039 209.371 84.3711 211.691C82.2617 213.988 81.207 217.727 81.207 222.906V244H77.7266V205.785H80.6797L81.3477 211.023H81.5586C84.043 207.039 88.4609 205.047 94.8125 205.047C103.484 205.047 107.82 209.699 107.82 219.004V244H104.375ZM150.008 205.785V208.211L142.098 208.703C144.207 211.328 145.262 214.211 145.262 217.352C145.262 221.031 144.031 224.02 141.57 226.316C139.133 228.59 135.852 229.727 131.727 229.727C129.992 229.727 128.773 229.656 128.07 229.516C126.688 230.242 125.633 231.098 124.906 232.082C124.18 233.066 123.816 234.109 123.816 235.211C123.816 236.43 124.273 237.32 125.188 237.883C126.125 238.445 127.684 238.727 129.863 238.727H136.543C140.691 238.727 143.867 239.57 146.07 241.258C148.273 242.922 149.375 245.395 149.375 248.676C149.375 252.707 147.734 255.812 144.453 257.992C141.195 260.195 136.543 261.297 130.496 261.297C125.691 261.297 121.965 260.371 119.316 258.52C116.691 256.668 115.379 254.09 115.379 250.785C115.379 248.16 116.188 245.98 117.805 244.246C119.445 242.512 121.66 241.328 124.449 240.695C123.301 240.203 122.375 239.512 121.672 238.621C120.992 237.707 120.652 236.664 120.652 235.492C120.652 232.938 122.281 230.688 125.539 228.742C123.312 227.828 121.578 226.398 120.336 224.453C119.094 222.484 118.473 220.234 118.473 217.703C118.473 213.883 119.68 210.824 122.094 208.527C124.531 206.207 127.812 205.047 131.938 205.047C134.445 205.047 136.391 205.293 137.773 205.785H150.008ZM119.07 250.469C119.07 255.719 122.973 258.344 130.777 258.344C140.809 258.344 145.824 255.145 145.824 248.746C145.824 246.449 145.039 244.785 143.469 243.754C141.898 242.723 139.355 242.207 135.84 242.207H129.582C122.574 242.207 119.07 244.961 119.07 250.469ZM121.988 217.703C121.988 220.656 122.879 222.953 124.66 224.594C126.465 226.211 128.867 227.02 131.867 227.02C135.055 227.02 137.492 226.211 139.18 224.594C140.891 222.977 141.746 220.633 141.746 217.562C141.746 214.305 140.867 211.867 139.109 210.25C137.375 208.609 134.938 207.789 131.797 207.789C128.75 207.789 126.348 208.668 124.59 210.426C122.855 212.16 121.988 214.586 121.988 217.703ZM241.59 211.375L238.918 225.367H249.57V228.145H238.32L235.297 244H232.133L235.227 228.145H222.57L219.547 244H216.453L219.477 228.145H209.527V225.367H220.039L222.711 211.375H212.27V208.562H223.203L226.227 192.602H229.426L226.297 208.562H239.129L242.223 192.602H245.246L242.152 208.562H252.172V211.375H241.59ZM223.062 225.367H235.824L238.566 211.375H225.805L223.062 225.367ZM290.352 205.785V208.211L282.441 208.703C284.551 211.328 285.605 214.211 285.605 217.352C285.605 221.031 284.375 224.02 281.914 226.316C279.477 228.59 276.195 229.727 272.07 229.727C270.336 229.727 269.117 229.656 268.414 229.516C267.031 230.242 265.977 231.098 265.25 232.082C264.523 233.066 264.16 234.109 264.16 235.211C264.16 236.43 264.617 237.32 265.531 237.883C266.469 238.445 268.027 238.727 270.207 238.727H276.887C281.035 238.727 284.211 239.57 286.414 241.258C288.617 242.922 289.719 245.395 289.719 248.676C289.719 252.707 288.078 255.812 284.797 257.992C281.539 260.195 276.887 261.297 270.84 261.297C266.035 261.297 262.309 260.371 259.66 258.52C257.035 256.668 255.723 254.09 255.723 250.785C255.723 248.16 256.531 245.98 258.148 244.246C259.789 242.512 262.004 241.328 264.793 240.695C263.645 240.203 262.719 239.512 262.016 238.621C261.336 237.707 260.996 236.664 260.996 235.492C260.996 232.938 262.625 230.688 265.883 228.742C263.656 227.828 261.922 226.398 260.68 224.453C259.438 222.484 258.816 220.234 258.816 217.703C258.816 213.883 260.023 210.824 262.438 208.527C264.875 206.207 268.156 205.047 272.281 205.047C274.789 205.047 276.734 205.293 278.117 205.785H290.352ZM259.414 250.469C259.414 255.719 263.316 258.344 271.121 258.344C281.152 258.344 286.168 255.145 286.168 248.746C286.168 246.449 285.383 244.785 283.812 243.754C282.242 242.723 279.699 242.207 276.184 242.207H269.926C262.918 242.207 259.414 244.961 259.414 250.469ZM262.332 217.703C262.332 220.656 263.223 222.953 265.004 224.594C266.809 226.211 269.211 227.02 272.211 227.02C275.398 227.02 277.836 226.211 279.523 224.594C281.234 222.977 282.09 220.633 282.09 217.562C282.09 214.305 281.211 211.867 279.453 210.25C277.719 208.609 275.281 207.789 272.141 207.789C269.094 207.789 266.691 208.668 264.934 210.426C263.199 212.16 262.332 214.586 262.332 217.703ZM301.25 205.785V230.535C301.25 234.379 302.059 237.18 303.676 238.938C305.293 240.672 307.801 241.539 311.199 241.539C315.746 241.539 319.086 240.391 321.219 238.094C323.375 235.797 324.453 232.059 324.453 226.879V205.785H327.898V244H324.945L324.312 238.727H324.102C321.617 242.711 317.199 244.703 310.848 244.703C302.152 244.703 297.805 240.051 297.805 230.746V205.785H301.25ZM344.176 244H340.695V205.785H344.176V244ZM340.203 195.168C340.203 192.918 340.941 191.793 342.418 191.793C343.145 191.793 343.707 192.086 344.105 192.672C344.527 193.258 344.738 194.09 344.738 195.168C344.738 196.223 344.527 197.055 344.105 197.664C343.707 198.273 343.145 198.578 342.418 198.578C340.941 198.578 340.203 197.441 340.203 195.168ZM367.098 241.609C369.301 241.609 371.223 241.422 372.863 241.047V243.859C371.176 244.422 369.23 244.703 367.027 244.703C363.652 244.703 361.156 243.801 359.539 241.996C357.945 240.191 357.148 237.355 357.148 233.488V208.809H351.488V206.77L357.148 205.188L358.906 196.539H360.699V205.785H371.914V208.809H360.699V232.996C360.699 235.926 361.215 238.094 362.246 239.5C363.277 240.906 364.895 241.609 367.098 241.609ZM404.328 244L403.449 237.953H403.168C401.246 240.414 399.266 242.16 397.227 243.191C395.211 244.199 392.82 244.703 390.055 244.703C386.305 244.703 383.387 243.742 381.301 241.82C379.215 239.898 378.172 237.238 378.172 233.84C378.172 230.113 379.719 227.219 382.812 225.156C385.93 223.094 390.43 222.004 396.312 221.887L403.59 221.676V219.145C403.59 215.512 402.852 212.77 401.375 210.918C399.898 209.066 397.52 208.141 394.238 208.141C390.699 208.141 387.031 209.125 383.234 211.094L381.934 208.07C386.129 206.102 390.277 205.117 394.379 205.117C398.574 205.117 401.703 206.207 403.766 208.387C405.852 210.566 406.895 213.965 406.895 218.582V244H404.328ZM390.266 241.539C394.344 241.539 397.555 240.379 399.898 238.059C402.266 235.715 403.449 232.469 403.449 228.32V224.559L396.77 224.84C391.402 225.098 387.57 225.941 385.273 227.371C383 228.777 381.863 230.98 381.863 233.98C381.863 236.371 382.59 238.234 384.043 239.57C385.52 240.883 387.594 241.539 390.266 241.539ZM434.352 205.047C435.969 205.047 437.703 205.211 439.555 205.539L438.887 208.879C437.293 208.48 435.641 208.281 433.93 208.281C430.672 208.281 428 209.664 425.914 212.43C423.828 215.195 422.785 218.688 422.785 222.906V244H419.305V205.785H422.258L422.609 212.676H422.855C424.426 209.863 426.102 207.895 427.883 206.77C429.664 205.621 431.82 205.047 434.352 205.047ZM531.066 211.375L528.395 225.367H539.047V228.145H527.797L524.773 244H521.609L524.703 228.145H512.047L509.023 244H505.93L508.953 228.145H499.004V225.367H509.516L512.188 211.375H501.746V208.562H512.68L515.703 192.602H518.902L515.773 208.562H528.605L531.699 192.602H534.723L531.629 208.562H541.648V211.375H531.066ZM512.539 225.367H525.301L528.043 211.375H515.281L512.539 225.367ZM565.062 205.047C566.68 205.047 568.414 205.211 570.266 205.539L569.598 208.879C568.004 208.48 566.352 208.281 564.641 208.281C561.383 208.281 558.711 209.664 556.625 212.43C554.539 215.195 553.496 218.688 553.496 222.906V244H550.016V205.785H552.969L553.32 212.676H553.566C555.137 209.863 556.812 207.895 558.594 206.77C560.375 205.621 562.531 205.047 565.062 205.047ZM581.094 205.785V230.535C581.094 234.379 581.902 237.18 583.52 238.938C585.137 240.672 587.645 241.539 591.043 241.539C595.59 241.539 598.93 240.391 601.062 238.094C603.219 235.797 604.297 232.059 604.297 226.879V205.785H607.742V244H604.789L604.156 238.727H603.945C601.461 242.711 597.043 244.703 590.691 244.703C581.996 244.703 577.648 240.051 577.648 230.746V205.785H581.094ZM647.188 244V219.215C647.188 215.371 646.379 212.582 644.762 210.848C643.145 209.09 640.637 208.211 637.238 208.211C632.668 208.211 629.316 209.371 627.184 211.691C625.074 213.988 624.02 217.727 624.02 222.906V244H620.539V205.785H623.492L624.16 211.023H624.371C626.855 207.039 631.273 205.047 637.625 205.047C646.297 205.047 650.633 209.699 650.633 219.004V244H647.188ZM689.656 244V219.215C689.656 215.371 688.848 212.582 687.23 210.848C685.613 209.09 683.105 208.211 679.707 208.211C675.137 208.211 671.785 209.371 669.652 211.691C667.543 213.988 666.488 217.727 666.488 222.906V244H663.008V205.785H665.961L666.629 211.023H666.84C669.324 207.039 673.742 205.047 680.094 205.047C688.766 205.047 693.102 209.699 693.102 219.004V244H689.656ZM708.957 244H705.477V205.785H708.957V244ZM704.984 195.168C704.984 192.918 705.723 191.793 707.199 191.793C707.926 191.793 708.488 192.086 708.887 192.672C709.309 193.258 709.52 194.09 709.52 195.168C709.52 196.223 709.309 197.055 708.887 197.664C708.488 198.273 707.926 198.578 707.199 198.578C705.723 198.578 704.984 197.441 704.984 195.168ZM748.438 244V219.215C748.438 215.371 747.629 212.582 746.012 210.848C744.395 209.09 741.887 208.211 738.488 208.211C733.918 208.211 730.566 209.371 728.434 211.691C726.324 213.988 725.27 217.727 725.27 222.906V244H721.789V205.785H724.742L725.41 211.023H725.621C728.105 207.039 732.523 205.047 738.875 205.047C747.547 205.047 751.883 209.699 751.883 219.004V244H748.438ZM794.07 205.785V208.211L786.16 208.703C788.27 211.328 789.324 214.211 789.324 217.352C789.324 221.031 788.094 224.02 785.633 226.316C783.195 228.59 779.914 229.727 775.789 229.727C774.055 229.727 772.836 229.656 772.133 229.516C770.75 230.242 769.695 231.098 768.969 232.082C768.242 233.066 767.879 234.109 767.879 235.211C767.879 236.43 768.336 237.32 769.25 237.883C770.188 238.445 771.746 238.727 773.926 238.727H780.605C784.754 238.727 787.93 239.57 790.133 241.258C792.336 242.922 793.438 245.395 793.438 248.676C793.438 252.707 791.797 255.812 788.516 257.992C785.258 260.195 780.605 261.297 774.559 261.297C769.754 261.297 766.027 260.371 763.379 258.52C760.754 256.668 759.441 254.09 759.441 250.785C759.441 248.16 760.25 245.98 761.867 244.246C763.508 242.512 765.723 241.328 768.512 240.695C767.363 240.203 766.438 239.512 765.734 238.621C765.055 237.707 764.715 236.664 764.715 235.492C764.715 232.938 766.344 230.688 769.602 228.742C767.375 227.828 765.641 226.398 764.398 224.453C763.156 222.484 762.535 220.234 762.535 217.703C762.535 213.883 763.742 210.824 766.156 208.527C768.594 206.207 771.875 205.047 776 205.047C778.508 205.047 780.453 205.293 781.836 205.785H794.07ZM763.133 250.469C763.133 255.719 767.035 258.344 774.84 258.344C784.871 258.344 789.887 255.145 789.887 248.746C789.887 246.449 789.102 244.785 787.531 243.754C785.961 242.723 783.418 242.207 779.902 242.207H773.645C766.637 242.207 763.133 244.961 763.133 250.469ZM766.051 217.703C766.051 220.656 766.941 222.953 768.723 224.594C770.527 226.211 772.93 227.02 775.93 227.02C779.117 227.02 781.555 226.211 783.242 224.594C784.953 222.977 785.809 220.633 785.809 217.562C785.809 214.305 784.93 211.867 783.172 210.25C781.438 208.609 779 207.789 775.859 207.789C772.812 207.789 770.41 208.668 768.652 210.426C766.918 212.16 766.051 214.586 766.051 217.703ZM885.652 211.375L882.98 225.367H893.633V228.145H882.383L879.359 244H876.195L879.289 228.145H866.633L863.609 244H860.516L863.539 228.145H853.59V225.367H864.102L866.773 211.375H856.332V208.562H867.266L870.289 192.602H873.488L870.359 208.562H883.191L886.285 192.602H889.309L886.215 208.562H896.234V211.375H885.652ZM867.125 225.367H879.887L882.629 211.375H869.867L867.125 225.367ZM952.344 244V218.934C952.344 215.207 951.617 212.488 950.164 210.777C948.711 209.066 946.484 208.211 943.484 208.211C939.57 208.211 936.676 209.289 934.801 211.445C932.926 213.602 931.988 216.988 931.988 221.605V244H928.438V217.879C928.438 211.434 925.484 208.211 919.578 208.211C915.57 208.211 912.652 209.383 910.824 211.727C908.996 214.047 908.082 217.773 908.082 222.906V244H904.602V205.785H907.484L908.223 211.023H908.434C909.488 209.125 910.988 207.66 912.934 206.629C914.879 205.574 917.023 205.047 919.367 205.047C925.391 205.047 929.258 207.309 930.969 211.832H931.109C932.352 209.652 934.016 207.977 936.102 206.805C938.211 205.633 940.602 205.047 943.273 205.047C947.445 205.047 950.574 206.16 952.66 208.387C954.746 210.613 955.789 214.152 955.789 219.004V244H952.344ZM991.367 244L990.488 237.953H990.207C988.285 240.414 986.305 242.16 984.266 243.191C982.25 244.199 979.859 244.703 977.094 244.703C973.344 244.703 970.426 243.742 968.34 241.82C966.254 239.898 965.211 237.238 965.211 233.84C965.211 230.113 966.758 227.219 969.852 225.156C972.969 223.094 977.469 222.004 983.352 221.887L990.629 221.676V219.145C990.629 215.512 989.891 212.77 988.414 210.918C986.938 209.066 984.559 208.141 981.277 208.141C977.738 208.141 974.07 209.125 970.273 211.094L968.973 208.07C973.168 206.102 977.316 205.117 981.418 205.117C985.613 205.117 988.742 206.207 990.805 208.387C992.891 210.566 993.934 213.965 993.934 218.582V244H991.367ZM977.305 241.539C981.383 241.539 984.594 240.379 986.938 238.059C989.305 235.715 990.488 232.469 990.488 228.32V224.559L983.809 224.84C978.441 225.098 974.609 225.941 972.312 227.371C970.039 228.777 968.902 230.98 968.902 233.98C968.902 236.371 969.629 238.234 971.082 239.57C972.559 240.883 974.633 241.539 977.305 241.539ZM1009.75 227.23L1029.27 205.785H1033.48L1018.44 222.098L1034.79 244H1030.6L1016.08 224.699L1009.82 230.395V244H1006.34V189.297H1009.82V216.719L1009.58 227.23H1009.75ZM1056.65 244.703C1051.1 244.703 1046.76 242.992 1043.64 239.57C1040.55 236.148 1039 231.355 1039 225.191C1039 219.098 1040.5 214.223 1043.5 210.566C1046.5 206.887 1050.55 205.047 1055.63 205.047C1060.13 205.047 1063.68 206.617 1066.29 209.758C1068.89 212.898 1070.19 217.164 1070.19 222.555V225.367H1042.66C1042.71 230.617 1043.93 234.625 1046.32 237.391C1048.73 240.156 1052.18 241.539 1056.65 241.539C1058.83 241.539 1060.74 241.387 1062.38 241.082C1064.05 240.777 1066.14 240.121 1068.68 239.113V242.277C1066.52 243.215 1064.53 243.848 1062.7 244.176C1060.87 244.527 1058.86 244.703 1056.65 244.703ZM1055.63 208.141C1051.95 208.141 1049 209.359 1046.77 211.797C1044.55 214.211 1043.25 217.703 1042.87 222.273H1066.5C1066.5 217.844 1065.54 214.387 1063.61 211.902C1061.69 209.395 1059.03 208.141 1055.63 208.141ZM1094.94 208.809H1085.94V244H1082.46V208.809H1075.36V206.77L1082.46 205.469V202.516C1082.46 197.828 1083.31 194.395 1085.02 192.215C1086.76 190.012 1089.58 188.91 1093.5 188.91C1095.61 188.91 1097.71 189.227 1099.82 189.859L1099.02 192.883C1097.14 192.297 1095.28 192.004 1093.43 192.004C1090.71 192.004 1088.77 192.812 1087.62 194.43C1086.5 196.023 1085.94 198.625 1085.94 202.234V205.785H1094.94V208.809ZM1117.37 205.047C1118.98 205.047 1120.72 205.211 1122.57 205.539L1121.9 208.879C1120.31 208.48 1118.66 208.281 1116.95 208.281C1113.69 208.281 1111.02 209.664 1108.93 212.43C1106.84 215.195 1105.8 218.688 1105.8 222.906V244H1102.32V205.785H1105.27L1105.62 212.676H1105.87C1107.44 209.863 1109.12 207.895 1110.9 206.77C1112.68 205.621 1114.84 205.047 1117.37 205.047ZM1133.86 244H1130.38V205.785H1133.86V244ZM1129.88 195.168C1129.88 192.918 1130.62 191.793 1132.1 191.793C1132.82 191.793 1133.39 192.086 1133.79 192.672C1134.21 193.258 1134.42 194.09 1134.42 195.168C1134.42 196.223 1134.21 197.055 1133.79 197.664C1133.39 198.273 1132.82 198.578 1132.1 198.578C1130.62 198.578 1129.88 197.441 1129.88 195.168ZM1162.12 244.703C1156.57 244.703 1152.23 242.992 1149.11 239.57C1146.02 236.148 1144.47 231.355 1144.47 225.191C1144.47 219.098 1145.97 214.223 1148.97 210.566C1151.97 206.887 1156.02 205.047 1161.1 205.047C1165.6 205.047 1169.15 206.617 1171.75 209.758C1174.36 212.898 1175.66 217.164 1175.66 222.555V225.367H1148.13C1148.18 230.617 1149.39 234.625 1151.79 237.391C1154.2 240.156 1157.64 241.539 1162.12 241.539C1164.3 241.539 1166.21 241.387 1167.85 241.082C1169.52 240.777 1171.61 240.121 1174.14 239.113V242.277C1171.99 243.215 1170 243.848 1168.17 244.176C1166.34 244.527 1164.32 244.703 1162.12 244.703ZM1161.1 208.141C1157.42 208.141 1154.47 209.359 1152.24 211.797C1150.02 214.211 1148.71 217.703 1148.34 222.273H1171.96C1171.96 217.844 1171 214.387 1169.08 211.902C1167.16 209.395 1164.5 208.141 1161.1 208.141ZM1212.85 244V219.215C1212.85 215.371 1212.04 212.582 1210.43 210.848C1208.81 209.09 1206.3 208.211 1202.9 208.211C1198.33 208.211 1194.98 209.371 1192.85 211.691C1190.74 213.988 1189.68 217.727 1189.68 222.906V244H1186.2V205.785H1189.16L1189.82 211.023H1190.04C1192.52 207.039 1196.94 205.047 1203.29 205.047C1211.96 205.047 1216.3 209.699 1216.3 219.004V244H1212.85ZM1242.66 205.047C1245.43 205.047 1247.82 205.551 1249.84 206.559C1251.85 207.566 1253.66 209.289 1255.25 211.727H1255.46C1255.32 208.773 1255.25 205.879 1255.25 203.043V189.297H1258.7V244H1256.41L1255.53 238.164H1255.25C1252.34 242.523 1248.17 244.703 1242.73 244.703C1237.46 244.703 1233.43 243.062 1230.64 239.781C1227.85 236.5 1226.46 231.719 1226.46 225.438C1226.46 218.828 1227.84 213.777 1230.61 210.285C1233.37 206.793 1237.39 205.047 1242.66 205.047ZM1242.66 208.211C1238.49 208.211 1235.35 209.676 1233.24 212.605C1231.16 215.535 1230.11 219.789 1230.11 225.367C1230.11 236.195 1234.32 241.609 1242.73 241.609C1247.05 241.609 1250.21 240.355 1252.23 237.848C1254.24 235.34 1255.25 231.203 1255.25 225.438V224.84C1255.25 218.934 1254.25 214.691 1252.26 212.113C1250.29 209.512 1247.09 208.211 1242.66 208.211ZM1295.26 234.051C1295.26 237.473 1293.96 240.109 1291.36 241.961C1288.75 243.789 1285.06 244.703 1280.28 244.703C1275.17 244.703 1271.12 243.918 1268.12 242.348V238.586C1271.96 240.508 1276.02 241.469 1280.28 241.469C1284.05 241.469 1286.91 240.848 1288.86 239.605C1290.83 238.34 1291.81 236.664 1291.81 234.578C1291.81 232.656 1291.03 231.039 1289.46 229.727C1287.91 228.414 1285.36 227.125 1281.79 225.859C1277.97 224.477 1275.29 223.293 1273.74 222.309C1272.2 221.301 1271.02 220.176 1270.23 218.934C1269.45 217.668 1269.07 216.133 1269.07 214.328C1269.07 211.469 1270.26 209.207 1272.65 207.543C1275.07 205.879 1278.43 205.047 1282.74 205.047C1286.87 205.047 1290.78 205.82 1294.48 207.367L1293.18 210.531C1289.43 208.984 1285.95 208.211 1282.74 208.211C1279.62 208.211 1277.15 208.727 1275.32 209.758C1273.5 210.789 1272.58 212.219 1272.58 214.047C1272.58 216.039 1273.29 217.633 1274.69 218.828C1276.12 220.023 1278.9 221.359 1283.02 222.836C1286.47 224.078 1288.98 225.203 1290.55 226.211C1292.12 227.195 1293.29 228.32 1294.06 229.586C1294.86 230.852 1295.26 232.34 1295.26 234.051ZM1388.81 211.375L1386.14 225.367H1396.79V228.145H1385.54L1382.52 244H1379.35L1382.45 228.145H1369.79L1366.77 244H1363.67L1366.7 228.145H1356.75V225.367H1367.26L1369.93 211.375H1359.49V208.562H1370.42L1373.45 192.602H1376.64L1373.52 208.562H1386.35L1389.44 192.602H1392.46L1389.37 208.562H1399.39V211.375H1388.81ZM1370.28 225.367H1383.04L1385.79 211.375H1373.02L1370.28 225.367ZM1430.57 195.098C1424.13 195.098 1419.05 197.16 1415.35 201.285C1411.65 205.41 1409.8 211.059 1409.8 218.23C1409.8 225.566 1411.54 231.262 1415.04 235.316C1418.53 239.371 1423.52 241.398 1430.01 241.398C1434.32 241.398 1438.29 240.848 1441.89 239.746V242.91C1438.5 244.105 1434.25 244.703 1429.17 244.703C1421.95 244.703 1416.27 242.371 1412.12 237.707C1407.97 233.043 1405.89 226.527 1405.89 218.16C1405.89 212.934 1406.88 208.328 1408.85 204.344C1410.84 200.359 1413.69 197.289 1417.39 195.133C1421.12 192.953 1425.44 191.863 1430.36 191.863C1435.38 191.863 1439.87 192.801 1443.83 194.676L1442.39 197.91C1438.64 196.035 1434.7 195.098 1430.57 195.098ZM1475.68 244L1474.8 237.953H1474.52C1472.6 240.414 1470.62 242.16 1468.58 243.191C1466.56 244.199 1464.17 244.703 1461.41 244.703C1457.66 244.703 1454.74 243.742 1452.65 241.82C1450.57 239.898 1449.52 237.238 1449.52 233.84C1449.52 230.113 1451.07 227.219 1454.16 225.156C1457.28 223.094 1461.78 222.004 1467.66 221.887L1474.94 221.676V219.145C1474.94 215.512 1474.2 212.77 1472.73 210.918C1471.25 209.066 1468.87 208.141 1465.59 208.141C1462.05 208.141 1458.38 209.125 1454.59 211.094L1453.29 208.07C1457.48 206.102 1461.63 205.117 1465.73 205.117C1469.93 205.117 1473.05 206.207 1475.12 208.387C1477.2 210.566 1478.25 213.965 1478.25 218.582V244H1475.68ZM1461.62 241.539C1465.7 241.539 1468.91 240.379 1471.25 238.059C1473.62 235.715 1474.8 232.469 1474.8 228.32V224.559L1468.12 224.84C1462.75 225.098 1458.92 225.941 1456.62 227.371C1454.35 228.777 1453.21 230.98 1453.21 233.98C1453.21 236.371 1453.94 238.234 1455.39 239.57C1456.87 240.883 1458.95 241.539 1461.62 241.539ZM1538.4 244V218.934C1538.4 215.207 1537.67 212.488 1536.22 210.777C1534.77 209.066 1532.54 208.211 1529.54 208.211C1525.62 208.211 1522.73 209.289 1520.86 211.445C1518.98 213.602 1518.04 216.988 1518.04 221.605V244H1514.49V217.879C1514.49 211.434 1511.54 208.211 1505.63 208.211C1501.62 208.211 1498.71 209.383 1496.88 211.727C1495.05 214.047 1494.14 217.773 1494.14 222.906V244H1490.66V205.785H1493.54L1494.28 211.023H1494.49C1495.54 209.125 1497.04 207.66 1498.99 206.629C1500.93 205.574 1503.08 205.047 1505.42 205.047C1511.45 205.047 1515.31 207.309 1517.02 211.832H1517.16C1518.41 209.652 1520.07 207.977 1522.16 206.805C1524.27 205.633 1526.66 205.047 1529.33 205.047C1533.5 205.047 1536.63 206.16 1538.71 208.387C1540.8 210.613 1541.84 214.152 1541.84 219.004V244H1538.4ZM1570.57 244.703C1564.68 244.703 1560.39 242.5 1557.7 238.094H1557.45L1557.56 241.047C1557.65 242.781 1557.7 244.68 1557.7 246.742V261.297H1554.22V205.785H1557.17L1557.84 211.234H1558.05C1560.68 207.109 1564.87 205.047 1570.64 205.047C1575.79 205.047 1579.72 206.746 1582.41 210.145C1585.13 213.52 1586.49 218.441 1586.49 224.91C1586.49 231.191 1585.06 236.066 1582.2 239.535C1579.37 242.98 1575.49 244.703 1570.57 244.703ZM1570.5 241.609C1574.41 241.609 1577.43 240.156 1579.57 237.25C1581.72 234.344 1582.8 230.277 1582.8 225.051C1582.8 213.824 1578.75 208.211 1570.64 208.211C1566.18 208.211 1562.91 209.441 1560.83 211.902C1558.74 214.34 1557.7 218.324 1557.7 223.855V224.98C1557.7 230.957 1558.7 235.223 1560.69 237.777C1562.7 240.332 1565.97 241.609 1570.5 241.609ZM1600.59 244H1597.11V205.785H1600.59V244ZM1596.62 195.168C1596.62 192.918 1597.36 191.793 1598.83 191.793C1599.56 191.793 1600.12 192.086 1600.52 192.672C1600.94 193.258 1601.15 194.09 1601.15 195.168C1601.15 196.223 1600.94 197.055 1600.52 197.664C1600.12 198.273 1599.56 198.578 1598.83 198.578C1597.36 198.578 1596.62 197.441 1596.62 195.168ZM1640.07 244V219.215C1640.07 215.371 1639.26 212.582 1637.64 210.848C1636.03 209.09 1633.52 208.211 1630.12 208.211C1625.55 208.211 1622.2 209.371 1620.07 211.691C1617.96 213.988 1616.9 217.727 1616.9 222.906V244H1613.42V205.785H1616.38L1617.04 211.023H1617.25C1619.74 207.039 1624.16 205.047 1630.51 205.047C1639.18 205.047 1643.52 209.699 1643.52 219.004V244H1640.07ZM1685.7 205.785V208.211L1677.79 208.703C1679.9 211.328 1680.96 214.211 1680.96 217.352C1680.96 221.031 1679.73 224.02 1677.27 226.316C1674.83 228.59 1671.55 229.727 1667.42 229.727C1665.69 229.727 1664.47 229.656 1663.77 229.516C1662.38 230.242 1661.33 231.098 1660.6 232.082C1659.88 233.066 1659.51 234.109 1659.51 235.211C1659.51 236.43 1659.97 237.32 1660.88 237.883C1661.82 238.445 1663.38 238.727 1665.56 238.727H1672.24C1676.39 238.727 1679.56 239.57 1681.77 241.258C1683.97 242.922 1685.07 245.395 1685.07 248.676C1685.07 252.707 1683.43 255.812 1680.15 257.992C1676.89 260.195 1672.24 261.297 1666.19 261.297C1661.39 261.297 1657.66 260.371 1655.01 258.52C1652.39 256.668 1651.07 254.09 1651.07 250.785C1651.07 248.16 1651.88 245.98 1653.5 244.246C1655.14 242.512 1657.36 241.328 1660.14 240.695C1659 240.203 1658.07 239.512 1657.37 238.621C1656.69 237.707 1656.35 236.664 1656.35 235.492C1656.35 232.938 1657.98 230.688 1661.23 228.742C1659.01 227.828 1657.27 226.398 1656.03 224.453C1654.79 222.484 1654.17 220.234 1654.17 217.703C1654.17 213.883 1655.38 210.824 1657.79 208.527C1660.23 206.207 1663.51 205.047 1667.63 205.047C1670.14 205.047 1672.09 205.293 1673.47 205.785H1685.7ZM1654.77 250.469C1654.77 255.719 1658.67 258.344 1666.47 258.344C1676.5 258.344 1681.52 255.145 1681.52 248.746C1681.52 246.449 1680.73 244.785 1679.16 243.754C1677.59 242.723 1675.05 242.207 1671.54 242.207H1665.28C1658.27 242.207 1654.77 244.961 1654.77 250.469ZM1657.68 217.703C1657.68 220.656 1658.57 222.953 1660.36 224.594C1662.16 226.211 1664.56 227.02 1667.56 227.02C1670.75 227.02 1673.19 226.211 1674.88 224.594C1676.59 222.977 1677.44 220.633 1677.44 217.562C1677.44 214.305 1676.56 211.867 1674.8 210.25C1673.07 208.609 1670.63 207.789 1667.49 207.789C1664.45 207.789 1662.04 208.668 1660.29 210.426C1658.55 212.16 1657.68 214.586 1657.68 217.703Z" fill="black" fill-opacity="0.5"/>
</svg>
