<svg width="297" height="553" viewBox="0 0 297 553" fill="none" xmlns="http://www.w3.org/2000/svg">
<path d="M330.612 404.58C330.612 322.621 265.972 256.165 186.177 256.165C106.383 256.165 41.7424 322.621 41.7424 404.58C41.7424 412.435 42.3567 420.221 43.5171 427.728C54.302 498.703 114.096 552.995 186.177 552.995C258.258 552.995 318.053 498.703 328.838 427.728C329.998 420.151 330.612 412.435 330.612 404.58Z" fill="#AFB7BD"/>
<path d="M249.112 485.218L256.552 491.474C262.559 486.538 269.794 479.517 276.825 470.202C283.651 461.165 288.292 452.545 291.364 445.524C288.838 443.717 286.313 441.84 283.787 440.033C281.466 446.428 277.507 454.978 270.954 463.876C263.378 474.234 255.119 481.047 249.112 485.218Z" fill="#402217"/>
<path d="M324.947 404.997C324.947 328.6 263.924 266.662 188.635 266.662C113.346 266.662 52.3225 328.6 52.3225 404.997C52.3225 412.365 52.8686 419.525 53.9607 426.616C64.1312 492.795 120.581 543.402 188.635 543.402C256.688 543.402 313.07 492.795 323.24 426.616C324.401 419.595 324.947 412.365 324.947 404.997Z" fill="#D6DCE2"/>
<path d="M303.582 401.591C303.582 339.235 254.709 288.628 194.437 288.628C134.164 288.628 85.2913 339.166 85.2913 401.591C85.2913 407.569 85.7691 413.478 86.5882 419.247C94.7793 473.261 139.898 514.553 194.437 514.553C248.907 514.553 294.094 473.261 302.285 419.247C303.104 413.478 303.582 407.569 303.582 401.591Z" fill="#C13E6F"/>
<path d="M291.5 401.591C291.5 346.604 248.429 301.975 195.256 301.975C142.082 301.975 99.0113 346.535 99.0113 401.591C99.0113 406.874 99.4208 412.087 100.172 417.162C107.407 464.78 147.202 501.206 195.256 501.206C243.31 501.206 283.104 464.78 290.34 417.162C291.091 412.018 291.5 406.874 291.5 401.591Z" fill="#383D8D"/>
<path d="M298.531 433.637C295.869 442.535 289.521 463.181 270.818 482.159C249.521 503.708 225.221 510.034 214.982 512.05C193.891 516.152 177.099 512.745 172.048 511.633C136.622 503.569 106.588 476.041 93.2093 441.77C81.8784 412.783 85.3596 386.367 88.0217 373.645C86.793 379.624 85.4961 387.618 84.9501 397.142C84.9501 397.142 84.404 407.569 85.0866 416.467C86.247 431.83 92.7315 453.032 105.974 472.01C124.267 498.217 148.226 509.756 158.738 514.066C168.294 517.194 192.662 523.659 222.013 515.457C248.975 507.949 265.835 492.099 272.866 484.661C279.828 476.945 291.227 462.347 298.258 440.658C305.493 418.205 304.606 398.879 303.377 388.383C304.06 398.532 304.06 414.868 298.531 433.637Z" fill="#24153F"/>
<path d="M290.886 417.857C283.651 370.239 243.856 333.813 195.802 333.813C147.748 333.813 107.885 370.239 100.718 417.857C107.953 465.475 147.748 501.901 195.802 501.901C243.856 501.901 283.651 465.475 290.886 417.857Z" fill="#54418E"/>
<path d="M195.597 487.929C241.287 487.929 278.326 449.616 278.326 402.355C278.326 355.094 241.287 316.782 195.597 316.782C149.907 316.782 112.868 355.094 112.868 402.355C112.868 449.616 149.907 487.929 195.597 487.929Z" fill="#24153F"/>
<path d="M195.597 483.966C239.176 483.966 274.504 447.428 274.504 402.355C274.504 357.283 239.176 320.744 195.597 320.744C152.018 320.744 116.69 357.283 116.69 402.355C116.69 447.428 152.018 483.966 195.597 483.966Z" fill="#E5BCCE"/>
<path d="M133.414 491.96C134.233 492.169 135.734 492.447 137.373 491.96C141.536 490.709 142.697 485.774 142.765 485.565C136.69 481.116 128.704 474.304 121.195 464.363C114.779 455.882 110.684 447.749 107.953 441.353L100.718 446.567C102.97 453.101 106.793 462.138 113.55 471.523C120.513 481.186 127.885 487.79 133.414 491.96Z" fill="#3D3D3D"/>
<path d="M287.473 459.01C287.61 458.107 287.746 456.577 287.063 454.978C285.357 450.877 280.511 450.251 280.238 450.182C276.552 456.786 270.681 465.614 261.74 474.304C254.163 481.672 246.654 486.747 240.648 490.084L246.518 496.896C252.661 493.907 261.057 489.11 269.521 481.255C278.326 473.261 283.992 465.058 287.473 459.01Z" fill="#3D3D3D"/>
<path d="M178.601 291.687C177.85 292.104 176.621 293.008 175.87 294.607C173.891 298.569 176.553 302.809 176.689 303.018C184.061 301.628 194.437 300.585 206.655 301.975C217.098 303.157 225.699 305.799 232.047 308.301L233.412 299.334C227.269 296.414 218.191 293.008 206.86 291.339C195.256 289.741 185.427 290.575 178.601 291.687Z" fill="#3D3D3D"/>
<path d="M49.7287 397.559C49.7287 398.254 49.7969 401.313 47.5444 403.954C45.2919 406.596 42.425 407.013 41.7424 407.082C38.6025 405.762 35.5309 404.441 32.391 403.05C33.5514 402.147 35.0531 400.687 36.4183 398.532C37.5787 396.794 38.2612 395.126 38.6708 393.805C42.3567 395.056 46.0427 396.307 49.7287 397.559Z" fill="#54418E"/>
<path d="M49.7287 397.559C51.4351 387.27 54.1655 375.105 58.6705 361.897C62.766 349.941 67.4759 339.652 71.9809 331.033C65.4281 334.369 58.8753 337.637 52.3225 340.973C48.6365 350.219 45.9745 358.213 44.1315 364.33C41.5377 372.742 40.6503 377.052 40.036 380.806C39.1486 386.089 38.8756 390.607 38.7391 393.874L49.7287 397.559Z" fill="#383D8D"/>
<path d="M32.391 403.05L35.1213 381.153L47.6127 346.187L52.3225 340.904C49.5239 347.855 47.4761 353.764 46.0427 358.144C43.2441 366.624 41.4011 372.394 40.036 380.319C39.0803 385.88 38.8073 390.607 38.6708 393.735C38.193 395.126 37.3739 397.142 35.9404 399.158C34.7118 400.965 33.4149 402.216 32.391 403.05Z" fill="#24153F"/>
<path d="M81.5371 319.215L87.2026 322.83C88.2265 322.691 91.3663 321.996 93.8919 319.215C95.8031 317.13 96.4175 314.905 96.6905 313.793C95.6666 311.707 94.5745 309.691 93.5506 307.606C93.5506 308.301 93.6871 312.681 90.2742 316.087C86.6565 319.632 82.1514 319.285 81.5371 319.215Z" fill="#A0A1A1"/>
<path d="M81.5371 319.215C80.9228 318.033 80.3084 316.573 79.7624 314.766C79.2846 313.098 79.0798 311.638 78.9433 310.387C79.3528 309.622 79.8989 308.788 80.6497 307.815C81.4006 306.911 82.0832 306.285 82.7658 305.729C84.2674 305.66 86.1787 305.729 88.3629 306.077C90.4107 306.424 92.1172 306.98 93.4823 307.536C93.4823 308.162 93.6189 313.237 89.5233 316.643C86.1787 319.563 82.3562 319.284 81.5371 319.215Z" fill="#3D3D3D"/>
<path d="M289.179 308.649C289.521 310.317 290.613 314.001 293.821 317.199C295.732 319.076 297.712 320.119 299.077 320.675C298.463 321.648 297.78 322.691 297.166 323.664C295.937 323.316 294.367 322.691 292.797 321.578C288.633 318.659 287.063 314.349 286.586 312.681C287.405 311.36 288.292 310.039 289.179 308.649Z" fill="#A0A1A1"/>
<path d="M299.077 320.675C299.418 319.493 299.691 318.103 299.896 316.434C300.101 314.697 300.101 313.098 300.033 311.777C299.828 311.151 299.555 310.456 299.213 309.691C298.736 308.788 298.258 308.023 297.848 307.467C296.483 307.467 294.913 307.536 293.138 307.815C291.705 308.023 290.408 308.301 289.248 308.649C289.589 310.109 290.34 312.959 292.592 315.67C294.845 318.728 297.712 320.119 299.077 320.675Z" fill="#3D3D3D"/>
<path d="M191.365 473.122C186.655 472.01 155.939 464.293 139.898 433.498C120.171 395.612 140.99 358.144 142.287 355.919C138.26 361.202 127.407 376.913 126.929 399.714C126.792 406.248 127.134 430.857 146.041 451.155C163.652 470.133 185.768 472.635 191.365 473.122Z" fill="#F0EFEF"/>
<path d="M16.3662 217.829L358 217.829L358 83.8037L16.3662 83.8037L16.3662 217.829Z" fill="#C13E6F"/>
<path d="M52.0495 28.3631C53.2098 28.5717 55.2576 28.9888 57.3053 30.5181C58.6022 31.4913 59.4896 32.4645 60.1039 33.2987C60.7183 34.3414 61.4691 35.9403 62.0152 38.0258C62.4247 39.5551 62.493 40.7369 62.5612 41.7796C62.9025 46.8542 62.5612 50.7471 62.5612 50.7471C62.0834 56.3778 61.7422 60.6182 60.65 66.9441C59.9674 70.9065 58.9435 75.9116 57.3053 81.6814C56.5545 82.446 55.3941 83.4192 53.7559 84.1839C50.8208 85.5742 48.1587 85.5047 46.7935 85.3657C47.2031 84.2534 47.7492 82.7241 48.2952 80.8472C48.8413 78.9007 49.5922 76.3982 50.0017 73.2005C50.2747 71.115 50.5478 68.1954 50.343 64.7196C50.8891 63.6769 51.5717 62.2171 52.1177 60.4097C53.0051 57.351 52.9368 54.7789 52.9368 53.6667C52.8685 52.763 52.732 50.7471 51.9812 48.3835C51.2303 45.881 50.1382 43.9346 49.2509 42.6833C49.8652 40.5978 50.4795 38.3038 50.9573 35.8708C51.4351 33.2292 51.8447 30.6571 52.0495 28.3631Z" fill="white"/>
<path d="M52.0495 28.3631C52.5273 28.4326 53.1416 28.5717 53.7559 28.7107C54.3702 28.9193 54.9163 29.1278 55.3259 29.3363C55.3941 31.0047 55.3259 32.8121 55.1211 34.7585C54.8481 37.4696 54.3702 39.9027 53.8242 41.9186C54.302 43.3089 54.848 45.1858 55.3259 47.4103C55.3941 47.7579 56.0767 50.8166 56.2132 53.5277C56.6228 59.5755 54.6433 61.4524 54.575 65.9014C54.575 68.4734 55.1893 72.2273 58.4657 76.8848C58.261 77.719 58.0562 78.4837 57.8514 79.3178C57.6466 80.0825 57.4419 80.9167 57.2371 81.6814C56.4863 82.446 55.3259 83.4192 53.6877 84.1839C50.7525 85.5742 48.0905 85.5047 46.7253 85.3657C47.1348 84.2534 47.6809 82.7241 48.227 80.8472C48.773 78.9007 49.5239 76.3982 49.9334 73.2005C50.2065 71.115 50.4795 68.1954 50.2747 64.7196C50.8208 63.6769 51.5034 62.2171 52.0495 60.4097C52.9368 57.351 52.8685 54.7789 52.8685 53.6667C52.8003 52.763 52.6638 50.7471 51.9129 48.3835C51.1621 45.881 50.0699 43.9346 49.1826 42.6833C49.7969 40.5978 50.4112 38.3038 50.8891 35.8708C51.4351 33.2292 51.8447 30.6571 52.0495 28.3631Z" fill="#24153F"/>
<path d="M52.0495 28.3632C52.3225 24.6093 52.8686 18.492 49.6604 12.3747C46.5888 6.39635 41.5377 3.47671 39.4217 2.43398C32.3911 -1.11129 25.77 0.139982 23.3809 0.557074C17.852 1.66932 13.9613 4.3109 11.9818 5.84023C13.6882 5.28411 16.1455 4.72799 19.0806 5.00605C28.4321 5.84023 37.5104 14.5296 38.3295 24.7484C38.4661 26.4167 38.7391 32.3255 34.7118 37.7477C33.961 38.7209 29.2512 44.9078 20.9919 45.1163C13.3469 45.3249 8.43233 40.3198 7.68149 39.4856C7.95452 40.3893 8.70537 42.6833 10.7531 44.6297C12.6644 46.3676 14.6439 46.9237 15.5995 47.1323C15.8042 47.8274 16.009 48.5226 16.2821 49.2177C18.8759 49.6348 22.2205 49.8434 26.1795 49.4958C29.2512 49.2178 31.9132 48.5921 34.0293 47.897C39.1486 46.1591 44.1998 44.4212 49.3192 42.6833C49.8652 40.8759 50.5478 38.3734 51.0939 35.4537C51.1621 34.6891 51.8447 31.2828 52.0495 28.3632Z" fill="white"/>
<path d="M11.9817 5.84027C11.2309 6.25737 10.1388 6.883 8.97836 7.92573C6.04324 10.4978 4.88285 13.487 4.132 15.2944C2.69857 18.9787 2.49381 22.3154 2.56207 24.6094C2.49381 26.4863 2.69858 29.0584 3.51768 31.9085C3.99549 33.5073 4.54156 34.8281 5.08763 36.0099C5.08763 36.0099 6.1115 37.9563 7.61319 39.5552C12.2548 44.5603 18.9441 45.1164 18.9441 45.1164C27.1351 45.8115 32.5958 40.1808 33.3467 39.3466C37.1009 35.3147 37.9882 30.7267 38.2613 28.5718C39.1486 21.2727 35.5309 15.8505 34.3023 14.1126C32.9371 12.1662 28.3638 6.32688 20.514 5.14512C16.8281 4.65852 13.8247 5.28415 11.9817 5.84027Z" fill="#070308"/>
<path d="M16.2138 49.2873C17.852 49.5653 20.0362 49.7739 22.6983 49.7739C27.2034 49.7043 30.6846 48.8702 32.3228 48.4531C33.1419 48.2445 35.0531 47.6189 38.8073 46.2981C40.7186 45.6725 42.2202 45.1163 43.3124 44.7688C43.0393 46.9932 42.3567 50.33 40.582 53.9448C39.8312 55.4046 38.193 58.4633 35.1896 61.3829C34.7118 61.8695 34.0975 62.4256 33.2101 63.1208C29.7289 65.8319 26.2478 66.8051 24.8143 67.1527C23.7905 67.4308 22.8348 67.6393 22.8348 67.6393C22.4935 67.7088 22.1523 67.7783 21.4014 67.9174C20.1728 68.1954 19.8997 68.1954 19.4902 68.3344C18.6711 68.6125 18.398 68.8211 18.1933 68.9601C17.852 69.2382 17.6472 69.5162 17.5107 69.6552C17.5107 69.6552 17.1011 70.2114 16.8281 70.9065C16.4868 71.8102 16.6233 73.4786 17.5107 75.286C16.8963 74.9384 16.2138 74.5908 15.5994 74.2433C15.6677 73.3396 15.736 71.9492 15.2581 70.4199C14.7803 68.8211 14.2343 68.682 13.4152 66.5966C12.5278 64.3721 11.9135 62.9818 12.1865 61.2439C12.2548 60.6878 12.323 60.8268 13.2104 58.4633C13.8247 56.9339 14.166 55.7522 14.5756 54.5704C15.0534 53.2496 15.6677 51.5117 16.2138 49.2873Z" fill="white"/>
<path d="M50.343 64.7892C50.4113 66.0405 50.4795 67.7088 50.4113 69.6553C50.343 70.4199 50.2747 72.2273 49.7969 74.8689C49.3874 77.2324 48.5683 80.8472 46.8618 85.4352C45.4284 86.2694 43.6537 87.1731 41.5377 87.8683C38.1247 88.9805 35.1213 89.2586 32.9371 89.2586C33.4831 92.8734 33.3466 95.8625 33.1418 97.948C32.7323 102.119 32.391 106.498 29.2511 110.113C28.432 111.086 26.5208 113.241 23.3809 113.797C20.514 114.354 16.6233 113.519 14.9851 110.808C14.3025 109.696 14.166 108.445 14.0977 107.819C13.8929 106.081 14.3707 105.317 14.7803 102.675C14.9168 101.632 15.2581 99.8944 15.1899 97.6699C15.1216 95.654 14.8486 93.9856 14.5755 92.4563C14.2342 90.5098 13.9612 89.9537 13.6882 88.7024C13.4151 87.4512 11.7769 80.1521 15.4629 76.6068C15.8724 76.1897 16.555 75.7031 17.5106 75.286C17.8519 75.6336 18.4663 76.1202 19.2854 76.4678C19.7632 76.6763 20.1727 76.7458 20.5823 76.8848C22.357 77.2324 23.9269 77.1629 24.6778 77.1629C25.7699 77.0934 26.9303 77.0239 28.159 76.8848C30.4798 76.5373 32.3228 76.1202 33.0053 75.9116C34.3705 75.5641 37.7834 74.5213 41.8107 72.2273C44.268 70.837 46.384 69.6553 48.5 67.2917C49.3191 66.249 49.9334 65.4148 50.343 64.7892Z" fill="white"/>
<path d="M17.5106 75.2859C16.9646 75.4945 16.009 75.9811 15.1899 76.8848C14.439 77.719 14.0977 78.4837 13.8247 79.0398C13.8247 79.0398 13.0738 80.7777 13.0738 83.1412C13.0738 83.2107 13.0738 83.3497 13.0738 83.3497C13.0738 85.8523 13.6199 86.1999 14.5073 91.0659C14.9851 93.638 15.1216 95.0978 15.1216 96.1405C15.1899 97.9479 15.1216 99.2687 15.1216 99.8249C15.1216 99.8944 15.0533 101.215 14.7803 102.466C14.712 102.744 14.6438 103.301 14.5073 103.787C14.5073 103.926 14.439 104.135 14.3707 104.413C14.3025 104.76 14.2342 104.899 14.2342 105.039C14.166 105.247 14.0977 105.734 14.0295 106.22C13.9612 106.568 13.9612 106.985 14.0295 107.611C13.6199 108.097 12.8691 108.723 11.8452 109.279C10.6165 109.905 9.59267 110.044 8.70531 110.113C7.06711 110.252 5.42891 110.461 3.58593 109.487C1.74295 108.514 0.923848 106.985 0.787331 106.637C-0.100028 104.969 -0.0317735 103.37 0.0364849 102.744C0.24126 100.868 1.06037 100.52 1.67469 98.365C2.1525 96.9052 2.1525 95.7234 2.1525 94.0551C2.1525 91.4135 1.81121 90.6488 1.19689 86.4779C0.446044 81.2643 0.650815 79.5264 0.787331 78.4837C1.3334 75.4945 2.35727 74.3823 2.76682 74.0347C3.99547 72.9224 5.36064 72.5749 6.17974 72.4358C11.0943 71.3931 16.0772 74.3822 17.5106 75.2859Z" fill="white"/>
<path d="M50.343 64.7892C50.07 65.3453 49.6604 65.9014 49.1826 66.5271C48.5683 67.2917 47.8857 67.9174 47.3396 68.404C47.6127 70.6285 47.6127 73.8957 46.2475 77.3019C45.7697 78.5532 45.1553 80.152 43.6536 81.6119C41.5376 83.8364 38.9438 84.601 37.1691 85.0876C35.1213 85.6437 33.4149 85.7828 32.1862 85.7828L32.8005 89.189C34.6435 89.189 37.0326 88.9805 39.7629 88.2853C42.698 87.5207 45.0871 86.3389 46.7253 85.3657C48.4317 80.8472 49.2509 77.2324 49.6604 74.7994C50.2065 71.8797 50.2747 69.8638 50.2747 69.0991C50.4795 67.4308 50.4113 65.9014 50.343 64.7892Z" fill="#2F3387"/>
<path d="M31.2306 82.5851C31.0941 82.5851 31.7767 85.7133 31.7767 90.3708C31.7767 92.0392 31.7084 94.6112 31.0941 97.6004C30.275 101.493 28.9781 107.819 23.9952 110.252C21.9474 111.225 19.6267 111.225 19.2854 111.225C17.2376 111.225 15.5994 110.669 14.712 110.252C14.9851 110.808 15.5994 111.642 16.4868 112.407C17.9202 113.519 19.4219 113.728 20.3775 113.797C20.9236 113.867 22.357 114.006 24.0635 113.589C27.2033 112.755 29.1146 110.322 29.9337 109.14C33.6196 104.204 33.4149 98.226 33.2784 93.9161C33.0736 87.5207 31.4354 82.5156 31.2306 82.5851Z" fill="#2F3387"/>
<path d="M17.5107 75.286C16.8963 74.9384 16.2138 74.5908 15.5994 74.2432C14.5073 74.9384 13.3469 75.564 12.2548 76.2592C12.5278 76.4677 12.8691 76.6068 13.2786 76.8153C13.5517 76.9543 13.8247 77.0238 14.0978 77.0934C13.6199 77.6495 13.0739 78.4837 12.5961 79.5959C11.6405 82.0289 12.05 83.9754 12.7326 88.0073C13.6882 94.0551 13.7565 96.5576 13.7565 98.226C13.7565 101.354 13.3469 102.675 12.8008 103.857C12.4596 104.552 11.2992 106.707 8.84186 107.889C8.22754 108.167 6.31631 109.001 3.92726 108.445C2.42558 108.028 1.4017 107.263 0.923889 106.776C1.26518 107.333 1.8795 108.375 3.10815 109.209C4.13203 109.905 5.08765 110.113 5.70197 110.252C6.24804 110.391 9.52445 111.017 12.5961 109.07C13.3469 108.584 13.893 108.097 14.166 107.75C14.166 107.541 14.166 107.263 14.166 106.985C14.2343 106.151 14.3025 105.664 14.5073 104.76C14.5073 104.76 14.6438 103.926 14.8486 102.675C14.9851 101.841 15.0534 101.076 15.1216 100.729C15.3264 98.9907 15.2582 97.6004 15.1899 96.2796C15.1216 95.1673 15.0534 93.638 14.7121 91.6916C14.6438 91.205 14.3708 90.1622 13.893 87.9377C13.3469 85.4352 13.3469 85.5742 13.2786 85.4352C13.1421 84.3925 12.8008 82.2375 13.6882 79.7349C14.0295 78.9008 14.7121 77.0238 16.4868 75.9116C16.8281 75.4945 17.2376 75.3555 17.5107 75.286Z" fill="#24153F"/>
<path d="M19.8314 7.16098C17.8519 7.30001 11.5039 7.85614 7.40837 12.8612C2.35724 19.0481 3.99545 28.0156 4.60978 31.2133C4.81455 32.395 5.08759 33.3683 5.29236 34.0634C4.54152 31.4218 4.0637 27.807 4.67803 23.7751C5.01932 21.4116 6.11146 14.7382 11.7769 10.3587C14.8485 8.06468 18.0567 7.36953 19.8314 7.16098Z" fill="#984B79"/>
<path d="M16.828 49.3568C16.1454 53.2496 15.3263 56.1693 14.6437 58.2547C14.1659 59.645 13.7564 60.6878 13.8246 62.2866C13.8246 64.5111 14.6437 66.388 15.3263 67.9869C15.8724 69.2382 16.4185 70.2114 16.828 70.9065L17.5106 75.286L15.5994 74.2433V70.3504C13.7564 67.0137 12.7325 64.3026 12.596 62.9123C12.5277 62.0086 12.596 61.3134 12.596 61.3134C12.6642 60.5487 12.869 59.9926 13.1421 59.2975C13.6199 57.9767 14.0294 57.0035 14.2342 56.6559C15.1216 54.5704 15.7359 52.8325 16.3502 51.0947C16.4867 50.33 16.6915 49.7739 16.828 49.3568Z" fill="#24153F"/>
<path d="M16.2138 49.2873C16.1455 49.0092 16.009 48.7311 15.9407 48.4531C14.7803 49.1482 13.1421 50.33 11.5722 51.9983C10.6848 52.902 9.52443 54.1533 8.50055 56.1693C7.2719 58.6023 6.93061 60.6878 6.65758 62.4952C6.4528 63.7464 6.17977 65.5538 6.4528 67.9173C6.65758 69.9333 6.79409 71.8102 8.091 73.6176C8.70532 74.5213 9.86572 76.0506 11.777 76.1897C13.2104 76.3287 14.8486 75.564 15.5994 74.1737C16.1455 73.2005 16.0772 72.2273 16.009 71.8797C15.9407 70.976 15.5994 70.3504 15.1216 69.5162C14.9168 69.0991 13.893 67.2222 13.3469 65.6929C12.8691 64.4416 12.2548 62.8427 12.5278 60.8963C12.5961 60.2707 12.9374 59.4365 13.5517 57.8376C14.166 56.2388 14.3708 56.0997 14.9851 54.4314C15.2581 53.8057 15.4629 53.0411 15.9407 51.6508C16.282 50.6776 16.555 49.8434 16.7598 49.2177C16.6233 49.3568 16.4185 49.3568 16.2138 49.2873Z" fill="white"/>
<path d="M43.3124 44.7688C42.3567 47.4103 41.4011 49.5653 40.5138 51.1642C37.9199 56.0997 35.1213 59.2279 34.4387 59.9926C32.391 62.2866 31.2306 63.1903 30.4798 63.7464C30.1385 64.0245 28.5003 65.0672 26.1795 65.9014C24.2 66.666 22.4253 66.9441 22.4253 66.9441C22.2205 67.0136 20.7188 67.2917 19.0806 67.7783C18.3297 68.0564 17.9202 68.1954 17.6472 68.4734C17.1694 68.9601 17.0328 69.5857 16.6233 69.6552C16.282 69.7247 16.009 69.3076 15.9407 69.3771C15.8042 69.5162 16.4185 71.0455 17.2376 71.6711C20.0362 73.8261 28.159 67.5002 30.1385 65.9709C33.3466 63.4683 35.3944 61.1743 36.4865 59.8536C37.7152 58.3937 39.1486 56.5863 40.5138 53.8753C42.3567 50.3995 43.0393 47.0628 43.3124 44.7688Z" fill="#24153F"/>
<path d="M49.2509 42.7529C50.343 44.3517 52.3908 47.8275 52.8686 52.624C53.0051 54.2924 53.4829 59.5755 50.4113 64.7892C48.0223 68.7515 44.7458 70.5589 40.9234 72.7139C39.763 73.3395 35.8722 75.425 30.2068 76.5372C28.4321 76.8848 20.1045 78.3446 17.579 75.286C16.7599 74.3127 16.6233 73.27 16.6233 73.27C16.3503 71.6017 17.3059 70.1418 17.5107 69.8638C18.9441 67.8478 21.0601 68.543 26.043 66.8746C27.4764 66.388 29.6607 65.6234 32.0497 64.0245C34.5753 62.2866 36.2135 60.4792 37.1009 59.367C39.2852 56.7949 40.5138 54.3619 41.1964 52.8326C42.5616 49.7044 43.1759 46.8543 43.3807 44.7688C45.2919 44.0737 47.2714 43.3785 49.2509 42.7529Z" fill="white"/>
<path d="M49.2509 42.7529C50.1383 44.6993 52.4591 50.8861 50.4796 58.2548C48.9096 63.8855 45.565 67.2917 44.1998 68.6125C39.763 72.992 34.9166 74.3823 31.7767 75.286C29.0464 76.0507 24.7461 76.9544 19.2854 76.4678C19.7632 76.6068 20.5141 76.8153 21.3332 76.9544C22.9031 77.2324 24.2 77.1629 25.3604 77.0934C26.7939 77.0239 27.8177 76.8848 28.7734 76.6763C30.6846 76.3982 32.118 75.9812 32.6641 75.8421C33.6197 75.5641 36.6231 74.7299 40.309 72.853C42.152 71.9493 43.9268 71.0456 45.9745 69.3772C47.0666 68.4735 48.0905 67.7088 49.1826 66.3185C49.5922 65.8319 51.1622 63.7465 52.1178 60.6183C52.186 60.4097 52.4591 59.367 52.7321 57.9072C53.2099 54.5009 52.8003 51.7203 52.5273 50.5386C51.8447 46.9933 50.343 44.3517 49.2509 42.7529Z" fill="#2F3387"/>
<path d="M50.343 64.7892C49.8652 65.4843 49.3191 66.249 48.6366 67.0137C48.1587 67.5698 47.7492 67.9869 47.3396 68.404C47.8857 68.3344 48.5683 68.1954 49.3191 67.9174C49.7287 67.7783 50.1382 67.5698 50.4795 67.4308C50.4795 67.1527 50.4795 66.9442 50.4795 66.6661C50.4113 65.9709 50.4113 65.3453 50.343 64.7892Z" fill="#24153F"/>
<path d="M15.5994 47.2018C17.0329 47.5494 19.2171 47.9665 21.7427 47.8274C25.7699 47.6189 28.7051 46.3676 29.5924 45.9505C33.6197 44.0736 35.8722 41.293 35.8722 41.293C35.8722 41.293 32.7323 45.3249 27.6129 47.4104C23.3126 49.1482 19.1489 48.9397 16.009 48.3836C15.8724 48.036 15.7359 47.6189 15.5994 47.2018Z" fill="#24153F"/>
<path d="M14.8486 101.98C14.8486 101.841 14.9168 101.632 14.9168 101.493C15.3264 101.424 15.8724 101.354 16.555 101.285C16.8963 101.285 17.9202 101.146 19.2854 101.215C19.6949 101.215 20.4458 101.215 21.3331 101.354C23.6539 101.632 25.6334 102.536 25.5651 102.536C24.1317 102.049 22.1522 101.632 19.6949 101.563C17.7837 101.493 16.1455 101.702 14.8486 101.98Z" fill="#984B79"/>
<path d="M1.74295 98.365C2.83509 98.2955 4.20026 98.365 5.77021 98.6431C7.54493 98.9907 8.9101 99.5468 9.93398 100.033C8.97836 99.4077 7.47667 98.6431 5.42892 98.226C3.99549 97.9479 2.76683 97.9479 1.81121 98.0174C1.81121 98.0869 1.81121 98.226 1.74295 98.365Z" fill="#984B79"/>
<path d="M48.4318 23.7056C48.5 25.374 47.4079 27.3899 44.9506 27.529C42.4933 27.5985 41.2646 25.7216 41.1964 23.9837C41.1281 22.3153 42.2202 20.2994 44.6775 20.1604C47.1349 20.0909 48.3635 21.9678 48.4318 23.7056ZM45.0188 17.3798L46.9301 17.3103L46.9984 19.1872L45.0871 19.2567L45.0188 17.3798ZM46.384 23.7752C46.3157 22.8019 45.5649 22.0373 44.6775 22.1068C43.7902 22.1068 43.1076 22.8715 43.1076 23.9142C43.1076 24.9569 43.9267 25.6521 44.8141 25.5825C45.7014 25.513 46.4523 24.7484 46.384 23.7752ZM42.152 17.5188L44.0632 17.4493L44.1315 19.3262L42.2203 19.3957L42.152 17.5188Z" fill="#070308"/>
<path d="M42.2426 19.3821L47.0173 19.2058L46.9505 17.3302L42.1758 17.5066L42.2426 19.3821Z" fill="#070308"/>
<path d="M44.814 25.5825C45.8319 25.5825 46.657 24.7422 46.657 23.7056C46.657 22.669 45.8319 21.8287 44.814 21.8287C43.7962 21.8287 42.9711 22.669 42.9711 23.7056C42.9711 24.7422 43.7962 25.5825 44.814 25.5825Z" fill="#070308"/>
</svg>
