<svg width="678" height="1710" viewBox="0 0 678 1710" fill="none" xmlns="http://www.w3.org/2000/svg">
<path d="M1257.7 1515.78C1257.7 1208.87 1011.84 960.006 708.337 960.006C404.838 960.006 158.975 1208.87 158.975 1515.78C158.975 1545.2 161.311 1574.36 165.725 1602.47C206.745 1868.25 434.175 2071.56 708.337 2071.56C982.499 2071.56 1209.93 1868.25 1250.95 1602.47C1255.36 1574.1 1257.7 1545.2 1257.7 1515.78Z" fill="#AFB7BD"/>
<path d="M1236.15 1517.35C1236.15 1231.26 1004.05 999.314 717.683 999.314C431.319 999.314 199.216 1231.26 199.216 1517.35C199.216 1544.94 201.293 1571.75 205.447 1598.3C244.131 1846.13 458.839 2035.64 717.683 2035.64C976.528 2035.64 1190.98 1846.13 1229.66 1598.3C1234.07 1572.01 1236.15 1544.94 1236.15 1517.35Z" fill="#D6DCE2"/>
<path d="M1154.89 1504.59C1154.89 1271.09 968.998 1081.57 739.751 1081.57C510.504 1081.57 324.614 1270.83 324.614 1504.59C324.614 1526.98 326.431 1549.1 329.547 1570.71C360.702 1772.98 532.312 1927.61 739.751 1927.61C946.93 1927.61 1118.8 1772.98 1149.96 1570.71C1153.07 1549.1 1154.89 1526.98 1154.89 1504.59Z" fill="#C13E6F"/>
<path d="M1108.94 1504.59C1108.94 1298.68 945.113 1131.56 742.867 1131.56C540.621 1131.56 376.798 1298.42 376.798 1504.59C376.798 1524.37 378.356 1543.9 381.212 1562.9C408.732 1741.22 560.092 1877.63 742.867 1877.63C925.641 1877.63 1077 1741.22 1104.52 1562.9C1107.38 1543.64 1108.94 1524.37 1108.94 1504.59Z" fill="#383D8D"/>
<path d="M1135.68 1624.6C1125.55 1657.92 1101.41 1735.23 1030.27 1806.3C949.267 1887 856.841 1910.69 817.898 1918.23C737.674 1933.59 673.807 1920.84 654.595 1916.67C519.851 1886.48 405.617 1783.39 354.73 1655.05C311.633 1546.5 324.874 1447.58 334.999 1399.94C330.326 1422.33 325.393 1452.27 323.316 1487.93C323.316 1487.93 321.239 1526.98 323.835 1560.3C328.249 1617.83 352.913 1697.23 403.28 1768.29C472.859 1866.43 563.987 1909.64 603.969 1925.78C640.316 1937.5 733.001 1961.71 844.639 1930.99C947.19 1902.88 1011.32 1843.52 1038.06 1815.67C1064.54 1786.77 1107.9 1732.11 1134.64 1650.89C1162.16 1566.81 1158.78 1494.44 1154.11 1455.13C1156.71 1493.14 1156.71 1554.31 1135.68 1624.6Z" fill="#24153F"/>
<path d="M1106.6 1565.5C1079.08 1387.19 927.719 1250.78 744.944 1250.78C562.169 1250.78 410.549 1387.19 383.289 1565.5C410.809 1743.82 562.169 1880.23 744.944 1880.23C927.719 1880.23 1079.08 1743.82 1106.6 1565.5Z" fill="#54418E"/>
<path d="M744.165 1827.9C917.949 1827.9 1058.83 1684.43 1058.83 1507.45C1058.83 1330.47 917.949 1187 744.165 1187C570.381 1187 429.502 1330.47 429.502 1507.45C429.502 1684.43 570.381 1827.9 744.165 1827.9Z" fill="#24153F"/>
<path d="M744.165 1813.07C909.919 1813.07 1044.29 1676.24 1044.29 1507.45C1044.29 1338.67 909.919 1201.84 744.165 1201.84C578.411 1201.84 444.041 1338.67 444.041 1507.45C444.041 1676.24 578.411 1813.07 744.165 1813.07Z" fill="#E5BCCE"/>
<path d="M507.648 1843C510.764 1843.78 516.476 1844.83 522.707 1843C538.544 1838.32 542.957 1819.83 543.217 1819.05C520.11 1802.39 489.734 1776.88 461.176 1739.66C436.771 1707.9 421.194 1677.44 410.809 1653.49L383.289 1673.02C391.857 1697.49 406.395 1731.33 432.098 1766.47C458.58 1802.65 486.619 1827.38 507.648 1843Z" fill="#3D3D3D"/>
<path d="M679.519 1093.03C676.663 1094.59 671.99 1097.97 669.134 1103.96C661.605 1118.8 671.73 1134.68 672.249 1135.46C700.289 1130.25 739.751 1126.35 786.224 1131.56C825.946 1135.98 858.659 1145.87 882.804 1155.24L887.996 1121.66C864.63 1110.73 830.1 1097.97 787.003 1091.73C742.867 1085.74 705.481 1088.86 679.519 1093.03Z" fill="#3D3D3D"/>
<path d="M189.351 1489.49C189.351 1492.1 189.61 1503.55 181.043 1513.44C172.475 1523.33 161.571 1524.9 158.975 1525.16C147.032 1520.21 135.349 1515.26 123.406 1510.06C127.82 1506.67 133.532 1501.21 138.724 1493.14C143.138 1486.63 145.734 1480.38 147.292 1475.43C161.311 1480.12 175.331 1484.81 189.351 1489.49Z" fill="#54418E"/>
<path d="M189.351 1489.49C195.841 1450.97 206.226 1405.41 223.361 1355.95C238.939 1311.17 256.852 1272.65 273.988 1240.37C249.064 1252.86 224.14 1265.1 199.216 1277.59C185.197 1312.22 175.071 1342.15 168.061 1365.06C158.196 1396.56 154.821 1412.7 152.484 1426.76C149.109 1446.54 148.071 1463.46 147.551 1475.7L189.351 1489.49Z" fill="#383D8D"/>
<path d="M123.406 1510.06L133.791 1428.06L181.302 1297.12L199.216 1277.33C188.572 1303.37 180.783 1325.49 175.331 1341.89C164.686 1373.65 157.677 1395.26 152.484 1424.93C148.849 1445.76 147.811 1463.46 147.292 1475.17C145.474 1480.38 142.359 1487.93 136.907 1495.48C132.233 1502.25 127.301 1506.93 123.406 1510.06Z" fill="#24153F"/>
<path d="M310.335 1196.11L331.883 1209.65C335.778 1209.13 347.72 1206.53 357.327 1196.11C364.596 1188.3 366.933 1179.97 367.971 1175.81C364.077 1168 359.923 1160.45 356.028 1152.64C356.028 1155.24 356.548 1171.64 343.567 1184.4C329.806 1197.68 312.671 1196.37 310.335 1196.11Z" fill="#A0A1A1"/>
<path d="M310.335 1196.11C307.998 1191.69 305.662 1186.22 303.585 1179.45C301.767 1173.21 300.988 1167.74 300.469 1163.05C302.027 1160.19 304.104 1157.07 306.96 1153.42C309.816 1150.04 312.412 1147.7 315.008 1145.61C320.72 1145.35 327.989 1145.61 336.297 1146.91C344.086 1148.22 350.576 1150.3 355.769 1152.38C355.769 1154.72 356.288 1173.73 340.711 1186.48C327.989 1197.42 313.45 1196.37 310.335 1196.11Z" fill="#3D3D3D"/>
<path d="M728.068 1772.46C710.154 1768.29 593.324 1739.4 532.312 1624.08C457.281 1482.2 536.466 1341.89 541.399 1333.56C526.082 1353.35 484.801 1412.18 482.984 1497.56C482.465 1522.03 483.763 1614.18 555.679 1690.2C622.661 1761.26 706.779 1770.64 728.068 1772.46Z" fill="#F0EFEF"/>
<path d="M62.4558 816.449L1361.87 816.449L1361.87 314.557L62.4558 314.557L62.4558 816.449Z" fill="#C13E6F"/>
<path d="M198.178 106.946C202.591 107.727 210.38 109.289 218.169 115.016C223.102 118.66 226.477 122.305 228.813 125.429C231.15 129.333 234.006 135.321 236.083 143.13C237.641 148.857 237.9 153.283 238.16 157.187C239.458 176.19 238.16 190.768 238.16 190.768C236.342 211.854 235.044 227.733 230.89 251.422C228.294 266.26 224.4 285.003 218.169 306.61C215.313 309.473 210.899 313.117 204.668 315.981C193.505 321.187 183.379 320.927 178.187 320.406C179.745 316.241 181.822 310.514 183.899 303.486C185.976 296.197 188.831 286.825 190.389 274.851C191.428 267.041 192.466 256.108 191.687 243.092C193.764 239.187 196.361 233.721 198.438 226.952C201.813 215.498 201.553 205.867 201.553 201.702C201.293 198.317 200.774 190.768 197.918 181.917C195.062 172.546 190.908 165.257 187.533 160.571C189.87 152.762 192.207 144.171 194.024 135.06C195.841 125.168 197.399 115.536 198.178 106.946Z" fill="white"/>
<path d="M198.178 106.946C199.995 107.206 202.332 107.727 204.668 108.248C207.005 109.029 209.082 109.81 210.64 110.59C210.899 116.838 210.64 123.606 209.861 130.895C208.822 141.048 207.005 150.159 204.928 157.708C206.745 162.914 208.822 169.943 210.64 178.273C210.899 179.575 213.496 191.029 214.015 201.181C215.573 223.829 208.043 230.857 207.784 247.517C207.784 257.149 210.121 271.206 222.582 288.648C221.804 291.771 221.025 294.635 220.246 297.759C219.467 300.622 218.688 303.746 217.909 306.61C215.053 309.473 210.64 313.117 204.409 315.981C193.245 321.187 183.12 320.927 177.927 320.406C179.485 316.241 181.562 310.514 183.639 303.486C185.716 296.197 188.572 286.825 190.13 274.851C191.168 267.041 192.207 256.108 191.428 243.092C193.505 239.187 196.101 233.721 198.178 226.952C201.553 215.498 201.293 205.867 201.293 201.702C201.034 198.317 200.514 190.768 197.659 181.917C194.803 172.546 190.649 165.257 187.274 160.571C189.61 152.762 191.947 144.171 193.764 135.06C195.841 125.168 197.399 115.536 198.178 106.946Z" fill="#24153F"/>
<path d="M198.178 106.946C199.216 92.8889 201.293 69.9809 189.091 47.073C177.408 24.6857 158.196 13.7524 150.148 9.84761C123.406 -3.42858 98.223 1.25714 89.1362 2.81904C68.1067 6.98412 53.3082 16.8762 45.7791 22.6032C52.2697 20.5206 61.6161 18.4381 72.7799 19.4794C108.348 22.6032 142.878 55.1428 145.994 93.4095C146.513 99.6571 147.551 121.784 132.234 142.089C129.378 145.733 111.464 168.902 80.0494 169.683C50.9716 170.463 32.2788 151.721 29.4229 148.597C30.4614 151.981 33.3173 160.571 41.1059 167.86C48.3754 174.368 55.9045 176.451 59.5392 177.232C60.3181 179.835 61.0969 182.438 62.1354 185.041C72.0011 186.603 84.7226 187.384 99.7807 186.083C111.464 185.041 121.589 182.698 129.637 180.095C149.109 173.587 168.321 167.079 187.793 160.571C189.87 153.803 192.466 144.432 194.543 133.498C194.803 130.635 197.399 117.879 198.178 106.946Z" fill="white"/>
<path d="M45.7791 22.6032C42.9233 24.1651 38.7693 26.508 34.3557 30.4127C23.1919 40.0445 18.7783 51.2381 15.9225 58.0064C10.4704 71.8032 9.69156 84.2984 9.95119 92.8889C9.69156 99.9175 10.4704 109.549 13.5859 120.222C15.4033 126.21 17.4802 131.156 19.5572 135.581C19.5572 135.581 23.4516 142.87 29.1633 148.857C46.8176 167.6 72.2607 169.683 72.2607 169.683C103.415 172.286 124.185 151.2 127.041 148.076C141.32 132.978 144.696 115.797 145.734 107.727C149.109 80.3937 135.349 60.0889 130.676 53.581C125.483 46.2921 108.089 24.4254 78.232 20C64.2124 18.1778 52.789 20.5207 45.7791 22.6032Z" fill="#070308"/>
<path d="M61.8758 185.302C68.1067 186.343 76.4147 187.124 86.54 187.124C103.675 186.863 116.916 183.74 123.147 182.178C126.262 181.397 133.532 179.054 147.811 174.108C155.08 171.765 160.792 169.683 164.946 168.381C163.908 176.711 161.311 189.206 154.561 202.743C151.705 208.21 145.474 219.663 134.051 230.597C132.234 232.419 129.897 234.502 126.522 237.105C113.281 247.257 100.04 250.902 94.5883 252.203C90.6939 253.244 87.0592 254.025 87.0592 254.025C85.761 254.286 84.463 254.546 81.6071 255.067C76.9339 256.108 75.8954 256.108 74.3377 256.629C71.2222 257.67 70.1837 258.451 69.4048 258.971C68.1067 260.013 67.3278 261.054 66.8086 261.575C66.8086 261.575 65.2509 263.657 64.2124 266.26C62.9143 269.644 63.4335 275.892 66.8086 282.66C64.472 281.359 61.8758 280.057 59.5392 278.756C59.7988 275.371 60.0584 270.165 58.2411 264.438C56.4237 258.451 54.3467 257.93 51.2312 250.121C47.8561 241.79 45.5195 236.584 46.558 230.076C46.8176 227.994 47.0773 228.514 50.4524 219.663C52.789 213.936 54.0871 209.511 55.6448 205.086C57.4622 200.14 59.7988 193.632 61.8758 185.302Z" fill="white"/>
<path d="M191.687 243.352C191.947 248.038 192.207 254.286 191.947 261.575C191.687 264.438 191.428 271.206 189.61 281.098C188.052 289.949 184.937 303.486 178.446 320.667C172.994 323.79 166.244 327.175 158.196 329.778C145.215 333.943 133.791 334.984 125.483 334.984C127.56 348.521 127.041 359.714 126.262 367.524C124.704 383.143 123.406 399.543 111.464 413.079C108.348 416.724 101.079 424.794 89.1361 426.876C78.232 428.959 63.4334 425.835 57.2024 415.683C54.6062 411.517 54.087 406.832 53.8274 404.489C53.0485 397.981 54.8659 395.117 56.4236 385.225C56.9428 381.321 58.241 374.813 57.9813 366.483C57.7217 358.933 56.6832 352.686 55.6448 346.959C54.3466 339.67 53.3081 337.587 52.2696 332.902C51.2311 328.216 45.0002 300.883 59.0198 287.606C60.5776 286.044 63.1738 284.222 66.8085 282.66C68.1066 283.962 70.4433 285.784 73.5587 287.086C75.3761 287.867 76.9338 288.127 78.4916 288.648C85.2418 289.949 91.2131 289.689 94.069 289.689C98.2229 289.429 102.637 289.168 107.31 288.648C116.137 287.346 123.147 285.784 125.743 285.003C130.935 283.702 143.917 279.797 159.234 271.206C168.581 266 176.629 261.575 184.677 252.724C187.793 248.819 190.13 245.695 191.687 243.352Z" fill="white"/>
<path d="M66.8085 282.66C64.7315 283.441 61.0968 285.263 57.9813 288.648C55.1255 291.771 53.8274 294.635 52.7889 296.717C52.7889 296.717 49.933 303.225 49.933 312.076C49.933 312.336 49.933 312.857 49.933 312.857C49.933 322.229 52.01 323.53 55.3851 341.752C57.2024 351.384 57.7217 356.851 57.7217 360.756C57.9813 367.524 57.7217 372.47 57.7217 374.552C57.7217 374.813 57.4621 379.759 56.4236 384.444C56.1639 385.486 55.9043 387.568 55.3851 389.39C55.3851 389.911 55.1254 390.692 54.8658 391.733C54.6062 393.035 54.3466 393.556 54.3466 394.076C54.087 394.857 53.8273 396.679 53.5677 398.502C53.3081 399.803 53.3081 401.365 53.5677 403.708C52.01 405.53 49.1541 407.873 45.2598 409.956C40.5866 412.298 36.6923 412.819 33.3172 413.079C27.0862 413.6 20.8553 414.381 13.8455 410.737C6.83567 407.092 3.72018 401.365 3.20093 400.064C-0.174159 393.816 0.0854475 387.829 0.34507 385.486C1.12394 378.457 4.23943 377.156 6.57604 369.086C8.39339 363.619 8.39339 359.194 8.39339 352.946C8.39339 343.054 7.09529 340.19 4.75869 324.571C1.90284 305.048 2.68169 298.54 3.20093 294.635C5.27792 283.441 9.17224 279.276 10.73 277.975C15.4032 273.81 20.5956 272.508 23.7111 271.987C42.4039 268.083 61.3564 279.276 66.8085 282.66Z" fill="white"/>
<path d="M191.687 243.352C190.649 245.435 189.091 247.517 187.274 249.86C184.937 252.724 182.341 255.067 180.264 256.889C181.302 265.219 181.302 277.454 176.11 290.21C174.292 294.895 171.956 300.883 166.244 306.349C158.196 314.679 148.33 317.543 141.58 319.365C133.791 321.448 127.301 321.968 122.627 321.968L124.964 334.724C131.974 334.724 141.061 333.943 151.446 331.34C162.609 328.476 171.696 324.051 177.927 320.406C184.418 303.486 187.533 289.949 189.091 280.838C191.168 269.905 191.428 262.356 191.428 259.492C192.206 253.244 191.947 247.517 191.687 243.352Z" fill="#2F3387"/>
<path d="M118.993 309.994C118.474 309.994 121.07 321.708 121.07 339.149C121.07 345.397 120.81 355.029 118.474 366.222C115.358 380.8 110.425 404.489 91.4728 413.6C83.6841 417.244 74.857 417.244 73.5588 417.244C65.7701 417.244 59.5392 415.162 56.1641 413.6C57.2026 415.683 59.5392 418.806 62.9143 421.67C68.3664 425.835 74.0781 426.616 77.7128 426.876C79.7898 427.136 85.2419 427.657 91.7324 426.095C103.675 422.971 110.945 413.86 114.06 409.435C128.08 390.952 127.301 368.565 126.782 352.425C126.003 328.476 119.772 309.733 118.993 309.994Z" fill="#2F3387"/>
<path d="M66.8085 282.66C64.4719 281.359 61.8757 280.057 59.5391 278.756C55.3851 281.359 50.9715 283.702 46.8176 286.305C47.856 287.086 49.1541 287.606 50.7118 288.387C51.7503 288.908 52.7889 289.168 53.8274 289.429C52.01 291.511 49.933 294.635 48.1157 298.8C44.481 307.911 46.0387 315.2 48.6349 330.298C52.2696 352.946 52.5292 362.317 52.5292 368.565C52.5292 380.279 50.9715 385.225 48.8945 389.651C47.5964 392.254 43.1828 400.324 33.8364 404.749C31.4998 405.79 24.2304 408.914 15.1436 406.832C9.43193 405.27 5.53757 402.406 3.72021 400.584C5.01833 402.667 7.35492 406.571 12.0281 409.695C15.9225 412.298 19.5572 413.079 21.8938 413.6C23.9708 414.121 36.4327 416.463 48.1157 409.175C50.9715 407.352 53.0485 405.53 54.087 404.229C54.087 403.448 54.087 402.406 54.087 401.365C54.3466 398.241 54.6062 396.419 55.3851 393.035C55.3851 393.035 55.9043 389.911 56.6832 385.225C57.2025 382.102 57.4621 379.238 57.7217 377.936C58.5006 371.429 58.2409 366.222 57.9813 361.276C57.7217 357.111 57.4621 351.384 56.1639 344.095C55.9043 342.273 54.8659 338.368 53.0485 330.038C50.9715 320.667 50.9715 321.187 50.7118 320.667C50.1926 316.762 48.8945 308.692 52.2696 299.321C53.5677 296.197 56.164 289.168 62.9141 285.003C64.2122 283.441 65.77 282.921 66.8085 282.66Z" fill="#24153F"/>
<path d="M75.6357 27.5492C68.1067 28.0698 43.9618 30.1524 28.3844 48.8953C9.1723 72.0635 15.4033 105.644 17.7399 117.619C18.5188 122.044 19.5572 125.689 20.3361 128.292C17.4803 118.4 15.6629 104.864 17.9995 89.7651C19.2976 80.9143 23.4516 55.9238 45.0003 39.5238C56.6833 30.9333 68.8856 28.3301 75.6357 27.5492Z" fill="#984B79"/>
<path d="M64.2123 185.562C61.6161 200.14 58.5005 211.073 55.9043 218.883C54.0869 224.089 52.5292 227.994 52.7889 233.981C52.7889 242.311 55.9043 249.34 58.5005 255.327C60.5775 260.013 62.6546 263.657 64.2123 266.26L66.8085 282.66L59.5391 278.756V264.178C52.5293 251.683 48.6349 241.53 48.1156 236.324C47.856 232.94 48.1156 230.337 48.1156 230.337C48.3753 227.473 49.1541 225.39 50.1926 222.787C52.01 217.841 53.5678 214.197 54.3466 212.895C57.7217 205.086 60.0583 198.578 62.3949 192.07C62.9141 189.206 63.693 187.124 64.2123 185.562Z" fill="#24153F"/>
<path d="M61.8757 185.302C61.6161 184.26 61.0969 183.219 60.8373 182.178C56.4237 184.781 50.1927 189.206 44.2214 195.454C40.8463 198.838 36.4327 203.524 32.5384 211.073C27.8652 220.184 26.5671 227.994 25.5286 234.762C24.7497 239.448 23.7112 246.216 24.7497 255.067C25.5286 262.616 26.0478 269.644 30.9806 276.413C33.3172 279.797 37.7308 285.524 45.0003 286.044C50.4523 286.565 56.6833 283.702 59.5392 278.495C61.6161 274.851 61.3565 271.206 61.0968 269.905C60.8372 266.521 59.5391 264.178 57.7218 261.054C56.9429 259.492 53.0485 252.464 50.9716 246.737C49.1542 242.051 46.8176 236.063 47.8561 228.775C48.1157 226.432 49.4139 223.308 51.7505 217.321C54.0871 211.333 54.8659 210.813 57.2025 204.565C58.241 202.222 59.0199 199.359 60.8373 194.152C62.1354 190.508 63.1738 187.384 63.9527 185.041C63.4335 185.562 62.6546 185.562 61.8757 185.302Z" fill="white"/>
<path d="M164.946 168.381C161.311 178.273 157.677 186.343 154.302 192.33C144.436 210.813 133.791 222.527 131.195 225.39C123.406 233.981 118.993 237.365 116.137 239.448C114.839 240.489 108.608 244.394 99.7808 247.517C92.2517 250.381 85.5015 251.422 85.5015 251.422C84.7227 251.683 79.0109 252.724 72.7799 254.546C69.9241 255.587 68.3664 256.108 67.3279 257.149C65.5106 258.971 64.9913 261.314 63.4336 261.575C62.1355 261.835 61.097 260.273 60.8373 260.533C60.3181 261.054 62.6547 266.781 65.7702 269.124C76.4147 277.194 107.31 253.505 114.839 247.778C127.041 238.406 134.83 229.816 138.984 224.87C143.657 219.403 149.109 212.635 154.302 202.483C161.311 189.467 163.908 176.971 164.946 168.381Z" fill="#24153F"/>
<path d="M187.533 160.832C191.687 166.819 199.476 179.835 201.293 197.797C201.812 204.044 203.63 223.829 191.947 243.352C182.86 258.19 170.398 264.959 155.859 273.029C151.446 275.371 136.647 283.181 115.098 287.346C108.348 288.648 76.6742 294.114 67.0681 282.66C63.9526 279.016 63.4334 275.111 63.4334 275.111C62.3949 268.863 66.0296 263.397 66.8085 262.356C72.2606 254.806 80.3089 257.41 99.2614 251.162C104.713 249.34 113.021 246.476 122.108 240.489C131.714 233.981 137.945 227.213 141.32 223.048C149.628 213.416 154.301 204.305 156.898 198.578C162.09 186.864 164.427 176.19 165.206 168.381C172.475 165.778 180.004 163.175 187.533 160.832Z" fill="white"/>
<path d="M187.533 160.832C190.908 168.121 199.736 191.289 192.207 218.883C186.235 239.968 173.514 252.724 168.321 257.67C151.446 274.07 133.012 279.276 121.07 282.66C110.685 285.524 94.3287 288.908 73.5588 287.086C75.3762 287.606 78.2321 288.387 81.3475 288.908C87.3189 289.949 92.2517 289.689 96.6653 289.429C102.117 289.168 106.012 288.648 109.646 287.867C116.916 286.825 122.368 285.263 124.445 284.743C128.08 283.702 139.503 280.578 153.523 273.549C160.533 270.165 167.283 266.781 175.071 260.533C179.225 257.149 183.12 254.286 187.274 249.079C188.831 247.257 194.803 239.448 198.438 227.733C198.697 226.952 199.736 223.048 200.774 217.581C202.591 204.825 201.034 194.413 199.995 189.987C197.399 176.711 191.687 166.819 187.533 160.832Z" fill="#2F3387"/>
<path d="M191.687 243.352C189.87 245.956 187.793 248.819 185.197 251.683C183.379 253.765 181.822 255.327 180.264 256.889C182.341 256.629 184.937 256.108 187.793 255.067C189.351 254.546 190.908 253.765 192.207 253.244C192.207 252.203 192.207 251.422 192.207 250.381C191.947 247.778 191.947 245.435 191.687 243.352Z" fill="#24153F"/>
<path d="M59.5391 177.492C64.9911 178.794 73.2991 180.356 82.9051 179.835C98.2229 179.054 109.387 174.368 112.762 172.806C128.08 165.778 136.647 155.365 136.647 155.365C136.647 155.365 124.704 170.464 105.233 178.273C88.8764 184.781 73.0394 184 61.0967 181.917C60.5775 180.616 60.0583 179.054 59.5391 177.492Z" fill="#24153F"/>
<path d="M56.6833 382.622C56.6833 382.102 56.943 381.321 56.943 380.8C58.5007 380.54 60.5777 380.279 63.1739 380.019C64.472 380.019 68.3664 379.498 73.5588 379.759C75.1165 379.759 77.9724 379.759 81.3475 380.279C90.1747 381.321 97.7037 384.705 97.444 384.705C91.992 382.883 84.463 381.321 75.1166 381.06C67.8471 380.8 61.6162 381.581 56.6833 382.622Z" fill="#984B79"/>
<path d="M6.83563 369.086C10.9896 368.825 16.1821 369.086 22.1534 370.127C28.9036 371.429 34.0961 373.511 37.9904 375.333C34.3557 372.99 28.644 370.127 20.8553 368.565C15.4032 367.524 10.73 367.524 7.09527 367.784C7.09527 368.044 7.09526 368.565 6.83563 369.086Z" fill="#984B79"/>
<path d="M184.418 89.5048C184.677 95.7524 180.523 103.302 171.177 103.822C161.831 104.083 157.157 97.054 156.898 90.5461C156.638 84.2984 160.792 76.7492 170.138 76.2286C179.485 75.9683 184.158 82.9968 184.418 89.5048ZM171.437 65.8159L178.706 65.5555L178.966 72.5841L171.696 72.8444L171.437 65.8159ZM176.629 89.7651C176.369 86.1206 173.514 83.2571 170.138 83.5174C166.763 83.5174 164.167 86.381 164.167 90.2857C164.167 94.1905 167.283 96.7937 170.658 96.5333C174.033 96.273 176.889 93.4095 176.629 89.7651ZM160.532 66.3365L167.802 66.0762L168.062 73.1047L160.792 73.3651L160.532 66.3365Z" fill="#070308"/>
<path d="M160.877 73.3144L179.038 72.6539L178.784 65.6303L160.623 66.2907L160.877 73.3144Z" fill="#070308"/>
<path d="M170.658 96.5333C174.529 96.5333 177.668 93.3865 177.668 89.5047C177.668 85.623 174.529 82.4762 170.658 82.4762C166.786 82.4762 163.648 85.623 163.648 89.5047C163.648 93.3865 166.786 96.5333 170.658 96.5333Z" fill="#070308"/>
</svg>
