<svg width="92" height="35" viewBox="0 0 92 35" fill="none" xmlns="http://www.w3.org/2000/svg">
<path d="M0.495636 8.56391H5.97629V10.7058C7.23622 9.23167 9.17649 7.89615 12.1625 7.89615C19.0921 7.89615 21.6875 13.9816 21.6875 18.5047C21.6875 24.1239 17.7566 28.7352 12.2003 28.7352C8.68512 28.7352 7.03463 27.0469 6.32907 26.3162V28.0675V34.5687H0.495636V8.56391ZM15.8541 18.2905C15.8541 16.01 14.1658 13.339 10.9656 13.339C9.55447 13.339 8.33235 13.906 7.4504 14.8131C6.60625 15.6951 6.07709 16.955 6.07709 18.3661C6.07709 19.7394 6.60625 20.9615 7.4882 21.8435C8.37014 22.7254 9.59227 23.2798 10.9656 23.2798C14.0272 23.2798 15.8541 20.7851 15.8541 18.3283V18.2905Z" fill="white"/>
<path d="M24.9885 2.06271H30.8219V28.0675H24.9885V2.06271Z" fill="white"/>
<path d="M55.529 28.0675H49.6955V25.9634C48.6372 27.8659 46.2182 28.7352 43.9377 28.7352C37.7515 28.7352 34.1355 23.8845 34.1355 18.3031C34.1355 11.9027 38.7342 7.89615 43.9377 7.89615C47.1379 7.89615 48.927 9.44585 49.6955 10.6428V8.56391H55.529V28.0675ZM39.9564 18.4039C39.9564 20.193 41.2919 23.2924 44.8071 23.2924C46.8859 23.2924 48.1459 22.3096 48.8892 21.1127C49.3806 20.3442 49.6326 19.5 49.6955 18.6181C49.7711 17.7361 49.5948 16.8668 49.2042 16.0478C48.5742 14.7123 47.2387 13.339 44.7819 13.339C41.4431 13.339 39.969 16.1486 39.969 18.3661V18.4039H39.9564Z" fill="white"/>
<path d="M60.9466 12.9862H58.0614V8.5639H60.9466V2.06271H66.7801V8.5639H69.5897V12.9862H66.7801V28.0675H60.9466V12.9862Z" fill="white"/>
<path d="M70.4968 18.2653C70.4968 13.5154 73.9112 7.93395 81.0046 7.93395C88.0979 7.93395 91.5123 13.5154 91.5123 18.3031C91.5123 23.0908 88.0979 28.6722 81.0046 28.6722C73.9112 28.6722 70.4968 23.0908 70.4968 18.3031V18.2653ZM79.7068 5.4267H74.1128V0.122437H79.7068V5.4267ZM76.3303 18.3283C76.3303 21.1379 78.4721 23.2168 81.0046 23.2168C83.537 23.2168 85.6789 21.1379 85.6789 18.3031C85.6789 15.4557 83.537 13.3768 81.0046 13.3768C78.4721 13.3768 76.3303 15.4557 76.3303 18.3031V18.3283ZM87.8963 5.4267H82.3149V0.122437H87.8963V5.4267Z" fill="white"/>
<path d="M87.8963 0.122437H74.1254V5.4267H87.8963V0.122437Z" fill="white"/>
<path d="M81.0172 23.3176C83.9397 23.3176 86.3088 20.9484 86.3088 18.0259C86.3088 15.1034 83.9397 12.7342 81.0172 12.7342C78.0947 12.7342 75.7255 15.1034 75.7255 18.0259C75.7255 20.9484 78.0947 23.3176 81.0172 23.3176Z" fill="white"/>
</svg>
