<svg width="109" height="41" viewBox="0 0 109 41" fill="none" xmlns="http://www.w3.org/2000/svg">
<path d="M0.845245 10.0832H7.31846V12.613C8.80656 10.8719 11.0982 9.29456 14.625 9.29456C22.8095 9.29456 25.875 16.4821 25.875 21.8243C25.875 28.4612 21.2322 33.9077 14.6697 33.9077C10.5179 33.9077 8.56847 31.9136 7.73513 31.0505V33.119V40.7975H0.845245V10.0832ZM18.9851 21.5713C18.9851 18.8779 16.9911 15.7231 13.2113 15.7231C11.5447 15.7231 10.1012 16.3928 9.05954 17.4642C8.06251 18.5059 7.43751 19.994 7.43751 21.6606C7.43751 23.2827 8.06251 24.7261 9.10418 25.7678C10.1458 26.8094 11.5893 27.4642 13.2113 27.4642C16.8274 27.4642 18.9851 24.5178 18.9851 21.616V21.5713Z" fill="white"/>
<path d="M29.7738 2.40466H36.6637V33.1189H29.7738V2.40466Z" fill="white"/>
<path d="M65.8453 33.119H58.9554V30.6338C57.7054 32.8809 54.8482 33.9077 52.1548 33.9077C44.8482 33.9077 40.5774 28.1785 40.5774 21.5862C40.5774 14.0267 46.0089 9.29456 52.1548 9.29456C55.9345 9.29456 58.0476 11.1249 58.9554 12.5386V10.0832H65.8453V33.119ZM47.4524 21.7053C47.4524 23.8184 49.0298 27.4791 53.1816 27.4791C55.6369 27.4791 57.125 26.3184 58.003 24.9047C58.5834 23.9969 58.881 22.9999 58.9554 21.9582C59.0447 20.9166 58.8363 19.8898 58.375 18.9225C57.631 17.3452 56.0536 15.7231 53.1518 15.7231C49.2083 15.7231 47.4673 19.0416 47.4673 21.6606V21.7053H47.4524Z" fill="white"/>
<path d="M72.244 15.3064H68.8363V10.0832H72.244V2.40466H79.1339V10.0832H82.4524V15.3064H79.1339V33.1189H72.244V15.3064Z" fill="white"/>
<path d="M83.5238 21.5416C83.5238 15.9315 87.5566 9.33923 95.9345 9.33923C104.313 9.33923 108.345 15.9315 108.345 21.5863C108.345 27.241 104.313 33.8333 95.9345 33.8333C87.5566 33.8333 83.5238 27.241 83.5238 21.5863V21.5416ZM94.4018 6.37791H87.7947V0.113037H94.4018V6.37791ZM90.4137 21.616C90.4137 24.9345 92.9435 27.3898 95.9345 27.3898C98.9256 27.3898 101.455 24.9345 101.455 21.5863C101.455 18.2232 98.9256 15.7678 95.9345 15.7678C92.9435 15.7678 90.4137 18.2232 90.4137 21.5863V21.616ZM104.074 6.37791H97.4822V0.113037H104.074V6.37791Z" fill="white"/>
<path d="M104.074 0.113037H87.8095V6.37792H104.074V0.113037Z" fill="white"/>
<path d="M95.9494 27.5089C99.4012 27.5089 102.199 24.7107 102.199 21.2589C102.199 17.8071 99.4012 15.0089 95.9494 15.0089C92.4977 15.0089 89.6994 17.8071 89.6994 21.2589C89.6994 24.7107 92.4977 27.5089 95.9494 27.5089Z" fill="white"/>
</svg>
